<svg width="415" height="112" viewBox="0 0 415 112" fill="none" xmlns="http://www.w3.org/2000/svg">
<path d="M252.565 18.4798C269.143 8.90772 285.934 6.92804 290.2 14.0137L292.607 18.1707L292.957 18.8626C296.133 26.227 286.12 39.3271 269.98 48.6471C253.32 58.2666 236.439 60.2162 232.276 53.0068L229.874 48.8467C225.872 41.6088 235.986 28.0526 252.565 18.4798Z" fill="#FF8800"/>
<path d="M283.81 15.2267C286.497 19.882 277.553 30.0779 263.833 38.0001C250.113 45.9222 236.813 48.5705 234.125 43.9152C231.438 39.26 240.381 29.064 254.101 21.1419C267.821 13.2198 281.122 10.5715 283.81 15.2267Z" fill="url(#paint0_linear_2_175)"/>
<path d="M134.495 0C138.866 1.46421e-05 143.303 0.629493 147.806 1.8877C152.375 3.14591 156.514 5.13259 160.223 7.84766L153.964 20.8604C150.984 18.7413 147.706 17.2505 144.13 16.3896C140.62 15.4626 137.375 14.999 134.396 14.999C130.753 14.999 127.873 15.6286 125.754 16.8867C123.701 18.0787 122.675 19.6352 122.675 21.5557C122.675 24.5354 124.993 26.5881 129.628 27.7139L141.051 30.3955C146.481 31.6537 150.686 33.9056 153.666 37.1504C156.646 40.329 158.136 44.1699 158.136 48.6729C158.136 52.6462 157.275 56.1235 155.554 59.1035C153.832 62.0172 151.514 64.4675 148.601 66.4541C145.687 68.3745 142.342 69.8309 138.567 70.8242C134.793 71.7513 130.853 72.2148 126.747 72.2148C121.582 72.2148 116.515 71.553 111.549 70.2285C106.582 68.8379 102.179 66.7519 98.3379 63.9707L104.298 50.2627C108.337 52.7791 112.477 54.5664 116.715 55.626C120.953 56.6855 124.893 57.2158 128.535 57.2158C132.31 57.2158 135.19 56.6197 137.177 55.4277C139.23 54.2357 140.256 52.6792 140.256 50.7588C140.256 49.2358 139.627 47.9442 138.369 46.8848C137.177 45.8253 135.256 45.0307 132.607 44.501L121.185 41.7197C116.152 40.594 112.145 38.4422 109.165 35.2637C106.251 32.085 104.794 28.1441 104.794 23.4424C104.794 18.4096 106.152 14.171 108.867 10.7275C111.648 7.21794 115.291 4.56919 119.794 2.78125C124.363 0.927104 129.264 0 134.495 0Z" fill="white"/>
<path fill-rule="evenodd" clip-rule="evenodd" d="M47.2236 1.09277C55.2363 1.09284 61.3615 2.88111 65.5996 6.45703C69.904 9.96679 72.0566 14.8338 72.0566 21.0586C72.0566 27.6808 70.3018 32.8796 66.792 36.6543C63.3485 40.3626 58.8122 42.8129 53.1836 44.0049C55.1038 44.7333 56.7265 45.9247 58.0508 47.5801C59.3752 49.1694 60.5006 51.1236 61.4277 53.4414L68.1826 71.1221H49.5078L41.5615 50.0635C40.8993 48.2094 40.0046 46.9179 38.8789 46.1895C37.8194 45.395 36.3294 44.998 34.4092 44.998H28.4492L24.2773 71.1221H6L17.125 1.09277H47.2236ZM30.4355 32.085H43.6475C50.9979 32.0849 54.6729 28.9719 54.6729 22.7471C54.6728 20.1647 53.8123 18.2445 52.0908 16.9863C50.4353 15.7281 47.7858 15.0986 44.1436 15.0986H33.1182L30.4355 32.085Z" fill="white"/>
<path d="M90.4385 71.1221H72.1611L83.2861 1.09277H101.563L90.4385 71.1221Z" fill="white"/>
<path d="M184.496 31.0908H184.694L215.587 1.09277H238.136L201.879 35.6602L228.302 71.1221H207.839L183.403 39.0381H183.205L178.139 71.1221H159.861L170.986 1.09277H189.264L184.496 31.0908Z" fill="white"/>
<path fill-rule="evenodd" clip-rule="evenodd" d="M361.963 71.1211H344.48L340.805 56.917H309.316L300.973 71.1211H282L325.905 1.0918H340.408L361.963 71.1211ZM317.562 42.9111H337.13L331.17 20.1641H330.971L317.562 42.9111Z" fill="white"/>
<path d="M382.991 55.9238H414.083L411.698 71.1211H362.23L373.356 1.0918H391.634L382.991 55.9238Z" fill="white"/>
<path d="M0.990723 106.5L3.98965 87.623H6.15852L4.76616 96.4324H4.44485C4.89112 95.4149 5.54267 94.6295 6.39951 94.0761C7.27419 93.5227 8.30954 93.246 9.50554 93.246C10.4695 93.246 11.2728 93.4424 11.9154 93.8351C12.5759 94.21 13.04 94.7991 13.3078 95.6023C13.5934 96.3878 13.638 97.3963 13.4416 98.628L12.2099 106.5H10.0411L11.2728 98.628C11.4156 97.8248 11.4156 97.1554 11.2728 96.6198C11.13 96.0843 10.8622 95.6827 10.4695 95.4149C10.0768 95.1471 9.54124 95.0133 8.86291 95.0133C8.00608 95.0133 7.25634 95.2007 6.61372 95.5756C5.97109 95.9326 5.45341 96.4413 5.0607 97.1018C4.68583 97.7623 4.427 98.5388 4.28419 99.4313L3.15959 106.5H0.990723Z" fill="white"/>
<path d="M20.5469 106.741C19.7972 106.741 19.0921 106.572 18.4316 106.232C17.789 105.893 17.2713 105.429 16.8786 104.84C16.4859 104.251 16.2895 103.582 16.2895 102.832C16.2895 101.904 16.5394 101.163 17.0393 100.609C17.5569 100.038 18.3602 99.6188 19.4491 99.351C20.538 99.0832 21.9393 98.9494 23.653 98.9494H25.7951L25.5809 100.368H23.9475C22.573 100.368 21.4841 100.44 20.6808 100.583C19.8954 100.726 19.3331 100.966 18.9939 101.306C18.6548 101.645 18.4852 102.109 18.4852 102.698C18.4852 103.483 18.744 104.081 19.2617 104.492C19.7972 104.903 20.4041 105.108 21.0825 105.108C21.7429 105.108 22.3499 104.965 22.9032 104.679C23.4745 104.394 23.9564 103.974 24.3492 103.421C24.7419 102.85 25.0007 102.18 25.1257 101.413L25.6344 98.1461C25.8129 97.1107 25.679 96.3253 25.2328 95.7898C24.8043 95.2543 24.0189 94.9865 22.8765 94.9865C22.0732 94.9865 21.3056 95.0936 20.5737 95.3078C19.8597 95.522 19.1546 95.8701 18.4584 96.3521L17.8425 94.7723C18.271 94.451 18.7708 94.1832 19.342 93.969C19.9132 93.7369 20.5202 93.5584 21.1628 93.4335C21.8233 93.3085 22.4748 93.246 23.1174 93.246C24.3313 93.246 25.2952 93.4781 26.0093 93.9422C26.7412 94.3885 27.241 95.0222 27.5087 95.8433C27.7765 96.6645 27.8211 97.6284 27.6426 98.7352L26.4109 106.5H24.3492L24.8043 103.555H25.0721C24.84 104.269 24.483 104.867 24.0011 105.349C23.5369 105.813 23.0014 106.161 22.3945 106.393C21.7876 106.625 21.1717 106.741 20.5469 106.741Z" fill="white"/>
<path d="M31.0269 111.32L34.2936 105.831L34.1597 106.768L30.5717 93.487H32.7941L35.6591 104.92H34.9094L41.4963 93.487H43.8527L33.3028 111.32H31.0269Z" fill="white"/>
<path d="M48.1076 106.741C47.3578 106.741 46.6527 106.572 45.9922 106.232C45.3496 105.893 44.8319 105.429 44.4392 104.84C44.0465 104.251 43.8501 103.582 43.8501 102.832C43.8501 101.904 44.1001 101.163 44.5999 100.609C45.1175 100.038 45.9208 99.6188 47.0097 99.351C48.0986 99.0832 49.4999 98.9494 51.2136 98.9494H53.3557L53.1415 100.368H51.5081C50.1336 100.368 49.0447 100.44 48.2414 100.583C47.456 100.726 46.8937 100.966 46.5545 101.306C46.2154 101.645 46.0458 102.109 46.0458 102.698C46.0458 103.483 46.3046 104.081 46.8223 104.492C47.3578 104.903 47.9647 105.108 48.6431 105.108C49.3036 105.108 49.9105 104.965 50.4639 104.679C51.0351 104.394 51.517 103.974 51.9098 103.421C52.3025 102.85 52.5613 102.18 52.6863 101.413L53.195 98.1461C53.3735 97.1107 53.2396 96.3253 52.7934 95.7898C52.365 95.2543 51.5795 94.9865 50.4371 94.9865C49.6338 94.9865 48.8662 95.0936 48.1343 95.3078C47.4203 95.522 46.7152 95.8701 46.019 96.3521L45.4032 94.7723C45.8316 94.451 46.3314 94.1832 46.9026 93.969C47.4738 93.7369 48.0808 93.5584 48.7234 93.4335C49.3839 93.3085 50.0354 93.246 50.6781 93.246C51.8919 93.246 52.8559 93.4781 53.5699 93.9422C54.3018 94.3885 54.8016 95.0222 55.0694 95.8433C55.3371 96.6645 55.3817 97.6284 55.2032 98.7352L53.9715 106.5H51.9098L52.365 103.555H52.6327C52.4007 104.269 52.0436 104.867 51.5617 105.349C51.0976 105.813 50.562 106.161 49.9551 106.393C49.3482 106.625 48.7323 106.741 48.1076 106.741Z" fill="white"/>
<path d="M63.3505 106.741C62.333 106.741 61.494 106.545 60.8335 106.152C60.1909 105.759 59.7357 105.215 59.468 104.519C59.218 103.823 59.1645 102.993 59.3073 102.029L60.4051 95.1739H57.8346L58.1292 93.487H60.6729L61.2887 89.4974H63.4576L62.8418 93.487H66.9653L66.6707 95.1739H62.5472L61.5029 101.814C61.3423 102.903 61.4583 103.689 61.851 104.171C62.2438 104.653 62.8775 104.894 63.7521 104.894C64.0556 104.894 64.3412 104.867 64.609 104.813C64.8767 104.742 65.1177 104.671 65.3319 104.599L65.5462 106.286C65.3141 106.411 64.9838 106.518 64.5554 106.607C64.1449 106.697 63.7432 106.741 63.3505 106.741Z" fill="white"/>
<path d="M80.1243 106.741C78.839 106.741 77.7769 106.5 76.9379 106.018C76.0989 105.536 75.4652 104.858 75.0368 103.983C74.6263 103.109 74.421 102.1 74.421 100.958C74.421 99.9936 74.5549 99.0565 74.8226 98.1461C75.0904 97.2178 75.5099 96.3878 76.0811 95.6559C76.6523 94.924 77.3753 94.3439 78.25 93.9154C79.1246 93.4692 80.1689 93.246 81.3828 93.246C82.2396 93.246 83.0607 93.3888 83.8462 93.6745C84.6316 93.9601 85.2564 94.3439 85.7205 94.8258L84.944 96.3788C84.4977 95.9326 83.9801 95.5934 83.391 95.3614C82.8019 95.1293 82.1593 95.0133 81.4631 95.0133C80.5884 95.0133 79.8476 95.1828 79.2407 95.522C78.6338 95.8612 78.1339 96.3164 77.7412 96.8876C77.3664 97.4588 77.0897 98.1014 76.9112 98.8155C76.7326 99.5117 76.6434 100.217 76.6434 100.931C76.6434 102.145 76.929 103.126 77.5002 103.876C78.0893 104.608 79.0533 104.974 80.3921 104.974C80.9454 104.974 81.5167 104.867 82.1057 104.653C82.7127 104.421 83.275 104.073 83.7926 103.608L84.4353 105.215C84.0961 105.536 83.6855 105.813 83.2036 106.045C82.7216 106.259 82.2128 106.429 81.6773 106.554C81.1596 106.679 80.642 106.741 80.1243 106.741Z" fill="white"/>
<path d="M92.5786 106.741C91.3469 106.741 90.2758 106.509 89.3654 106.045C88.455 105.581 87.7499 104.92 87.2501 104.064C86.7681 103.189 86.5271 102.162 86.5271 100.984C86.5271 99.5741 86.8128 98.2889 87.384 97.1286C87.9552 95.9504 88.7585 95.0133 89.7938 94.3171C90.8292 93.6031 92.0609 93.246 93.4889 93.246C94.8456 93.246 95.9167 93.5584 96.7021 94.1832C97.5054 94.808 98.0498 95.6291 98.3354 96.6466C98.621 97.6463 98.6835 98.7262 98.5229 99.8865L98.4425 100.449H88.214L88.4283 99.0297H97.2108L96.7289 99.3778C96.8538 98.5388 96.827 97.7801 96.6485 97.1018C96.47 96.4235 96.1219 95.879 95.6043 95.4685C95.0866 95.0579 94.3726 94.8526 93.4622 94.8526C92.4982 94.8526 91.6949 95.0757 91.0523 95.522C90.4097 95.9504 89.9009 96.5038 89.5261 97.1821C89.1691 97.8605 88.9281 98.5656 88.8031 99.2975L88.696 99.9401C88.5354 100.958 88.5889 101.85 88.8567 102.618C89.1244 103.367 89.5796 103.957 90.2223 104.385C90.8827 104.795 91.7039 105.001 92.6857 105.001C93.5068 105.001 94.2744 104.885 94.9884 104.653C95.7024 104.403 96.3451 104.019 96.9163 103.501L97.6393 104.974C97.0323 105.545 96.2737 105.983 95.3633 106.286C94.4529 106.589 93.5247 106.741 92.5786 106.741Z" fill="white"/>
<path d="M105.571 106.741C104.518 106.741 103.536 106.598 102.626 106.313C101.715 106.027 100.974 105.634 100.403 105.135L101.207 103.635C101.635 103.974 102.081 104.251 102.545 104.465C103.027 104.662 103.518 104.813 104.018 104.92C104.536 105.028 105.062 105.081 105.598 105.081C106.562 105.081 107.312 104.894 107.847 104.519C108.4 104.126 108.677 103.582 108.677 102.885C108.677 102.439 108.525 102.073 108.222 101.788C107.936 101.484 107.517 101.27 106.963 101.145L104.42 100.529C103.527 100.315 102.822 99.9312 102.304 99.3778C101.805 98.8066 101.555 98.1104 101.555 97.2892C101.555 96.5217 101.769 95.8344 102.197 95.2275C102.626 94.6027 103.242 94.1207 104.045 93.7816C104.848 93.4245 105.794 93.246 106.883 93.246C107.472 93.246 108.052 93.3085 108.624 93.4335C109.195 93.5584 109.721 93.7459 110.203 93.9958C110.703 94.2457 111.114 94.5402 111.435 94.8794L110.685 96.3521C110.168 95.8523 109.579 95.4863 108.918 95.2543C108.258 95.0222 107.552 94.9062 106.803 94.9062C105.803 94.9062 105.018 95.1114 104.446 95.522C103.875 95.9326 103.59 96.486 103.59 97.1821C103.59 97.6106 103.724 97.9854 103.991 98.3067C104.259 98.6102 104.661 98.8244 105.196 98.9494L107.74 99.5652C108.686 99.7973 109.418 100.181 109.936 100.717C110.471 101.234 110.739 101.913 110.739 102.752C110.739 103.573 110.525 104.287 110.096 104.894C109.668 105.483 109.061 105.938 108.275 106.259C107.508 106.581 106.606 106.741 105.571 106.741Z" fill="white"/>
<path d="M117.82 106.741C117.07 106.741 116.365 106.572 115.704 106.232C115.062 105.893 114.544 105.429 114.151 104.84C113.759 104.251 113.562 103.582 113.562 102.832C113.562 101.904 113.812 101.163 114.312 100.609C114.83 100.038 115.633 99.6188 116.722 99.351C117.811 99.0832 119.212 98.9494 120.926 98.9494H123.068L122.854 100.368H121.22C119.846 100.368 118.757 100.44 117.954 100.583C117.168 100.726 116.606 100.966 116.267 101.306C115.928 101.645 115.758 102.109 115.758 102.698C115.758 103.483 116.017 104.081 116.534 104.492C117.07 104.903 117.677 105.108 118.355 105.108C119.016 105.108 119.623 104.965 120.176 104.679C120.747 104.394 121.229 103.974 121.622 103.421C122.015 102.85 122.273 102.18 122.398 101.413L122.907 98.1461C123.086 97.1107 122.952 96.3253 122.506 95.7898C122.077 95.2543 121.292 94.9865 120.149 94.9865C119.346 94.9865 118.578 95.0936 117.846 95.3078C117.132 95.522 116.427 95.8701 115.731 96.3521L115.115 94.7723C115.544 94.451 116.044 94.1832 116.615 93.969C117.186 93.7369 117.793 93.5584 118.436 93.4335C119.096 93.3085 119.748 93.246 120.39 93.246C121.604 93.246 122.568 93.4781 123.282 93.9422C124.014 94.3885 124.514 95.0222 124.781 95.8433C125.049 96.6645 125.094 97.6284 124.915 98.7352L123.684 106.5H121.622L122.077 103.555H122.345C122.113 104.269 121.756 104.867 121.274 105.349C120.81 105.813 120.274 106.161 119.667 106.393C119.06 106.625 118.444 106.741 117.82 106.741Z" fill="white"/>
<path d="M127.681 106.5L129.769 93.487H131.884L131.376 96.5931H131.108C131.429 95.647 131.983 94.8705 132.768 94.2635C133.554 93.6566 134.553 93.3085 135.767 93.2193L136.811 93.1389L136.838 95.0133L135.339 95.1471C134.393 95.2364 133.625 95.4595 133.036 95.8166C132.447 96.1557 131.992 96.6198 131.67 97.2089C131.367 97.798 131.144 98.5031 131.001 99.3242L129.876 106.5H127.681Z" fill="white"/>
<path d="M143.359 106.741C142.127 106.741 141.056 106.509 140.146 106.045C139.236 105.581 138.53 104.92 138.031 104.064C137.549 103.189 137.308 102.162 137.308 100.984C137.308 99.5741 137.593 98.2889 138.165 97.1286C138.736 95.9504 139.539 95.0133 140.574 94.3171C141.61 93.6031 142.841 93.246 144.27 93.246C145.626 93.246 146.697 93.5584 147.483 94.1832C148.286 94.808 148.83 95.6291 149.116 96.6466C149.402 97.6463 149.464 98.7262 149.303 99.8865L149.223 100.449H138.995L139.209 99.0297H147.991L147.509 99.3778C147.634 98.5388 147.608 97.7801 147.429 97.1018C147.251 96.4235 146.902 95.879 146.385 95.4685C145.867 95.0579 145.153 94.8526 144.243 94.8526C143.279 94.8526 142.475 95.0757 141.833 95.522C141.19 95.9504 140.681 96.5038 140.307 97.1821C139.95 97.8605 139.709 98.5656 139.584 99.2975L139.477 99.9401C139.316 100.958 139.369 101.85 139.637 102.618C139.905 103.367 140.36 103.957 141.003 104.385C141.663 104.795 142.484 105.001 143.466 105.001C144.287 105.001 145.055 104.885 145.769 104.653C146.483 104.403 147.126 104.019 147.697 103.501L148.42 104.974C147.813 105.545 147.054 105.983 146.144 106.286C145.233 106.589 144.305 106.741 143.359 106.741Z" fill="white"/>
<path d="M156.753 106.741C155.736 106.741 154.897 106.545 154.236 106.152C153.594 105.759 153.138 105.215 152.871 104.519C152.621 103.823 152.567 102.993 152.71 102.029L153.808 95.1739H151.237L151.532 93.487H154.076L154.691 89.4974H156.86L156.245 93.487H160.368L160.074 95.1739H155.95L154.906 101.814C154.745 102.903 154.861 103.689 155.254 104.171C155.647 104.653 156.28 104.894 157.155 104.894C157.458 104.894 157.744 104.867 158.012 104.813C158.279 104.742 158.52 104.671 158.735 104.599L158.949 106.286C158.717 106.411 158.387 106.518 157.958 106.607C157.548 106.697 157.146 106.741 156.753 106.741Z" fill="white"/>
<path d="M173.848 106.741C172.617 106.741 171.546 106.509 170.635 106.045C169.725 105.581 169.02 104.92 168.52 104.064C168.038 103.189 167.797 102.162 167.797 100.984C167.797 99.5741 168.083 98.2889 168.654 97.1286C169.225 95.9504 170.028 95.0133 171.064 94.3171C172.099 93.6031 173.331 93.246 174.759 93.246C176.115 93.246 177.186 93.5584 177.972 94.1832C178.775 94.808 179.32 95.6291 179.605 96.6466C179.891 97.6463 179.953 98.7262 179.793 99.8865L179.712 100.449H169.484L169.698 99.0297H178.481L177.999 99.3778C178.124 98.5388 178.097 97.7801 177.918 97.1018C177.74 96.4235 177.392 95.879 176.874 95.4685C176.356 95.0579 175.642 94.8526 174.732 94.8526C173.768 94.8526 172.965 95.0757 172.322 95.522C171.68 95.9504 171.171 96.5038 170.796 97.1821C170.439 97.8605 170.198 98.5656 170.073 99.2975L169.966 99.9401C169.805 100.958 169.859 101.85 170.126 102.618C170.394 103.367 170.849 103.957 171.492 104.385C172.153 104.795 172.974 105.001 173.955 105.001C174.777 105.001 175.544 104.885 176.258 104.653C176.972 104.403 177.615 104.019 178.186 103.501L178.909 104.974C178.302 105.545 177.543 105.983 176.633 106.286C175.723 106.589 174.794 106.741 173.848 106.741Z" fill="white"/>
<path d="M187.055 106.741C186.055 106.741 185.181 106.518 184.431 106.072C183.681 105.608 183.092 104.956 182.664 104.117C182.253 103.278 182.048 102.296 182.048 101.172C182.048 99.7259 182.298 98.4049 182.798 97.2089C183.315 95.9951 184.056 95.0311 185.02 94.3171C186.002 93.6031 187.18 93.246 188.555 93.246C189.608 93.246 190.545 93.5049 191.366 94.0225C192.187 94.5402 192.749 95.3435 193.053 96.4324L192.866 96.4056L194.231 87.623H196.4L193.401 106.5H191.286L191.714 103.742H191.982C191.661 104.349 191.259 104.876 190.777 105.322C190.313 105.768 189.759 106.116 189.117 106.366C188.492 106.616 187.805 106.741 187.055 106.741ZM187.751 105.001C188.751 105.001 189.59 104.724 190.268 104.171C190.947 103.617 191.464 102.877 191.821 101.948C192.178 101.02 192.357 100.003 192.357 98.8958C192.357 97.6106 192.044 96.6377 191.42 95.9772C190.795 95.3167 189.938 94.9865 188.849 94.9865C187.867 94.9865 187.028 95.2632 186.332 95.8166C185.654 96.3699 185.136 97.1018 184.779 98.0122C184.422 98.9226 184.244 99.949 184.244 101.091C184.244 102.359 184.556 103.332 185.181 104.01C185.806 104.671 186.662 105.001 187.751 105.001Z" fill="white"/>
<path d="M203.71 106.741C202.478 106.741 201.407 106.509 200.497 106.045C199.587 105.581 198.881 104.92 198.382 104.064C197.9 103.189 197.659 102.162 197.659 100.984C197.659 99.5741 197.944 98.2889 198.515 97.1286C199.087 95.9504 199.89 95.0133 200.925 94.3171C201.961 93.6031 203.192 93.246 204.62 93.246C205.977 93.246 207.048 93.5584 207.834 94.1832C208.637 94.808 209.181 95.6291 209.467 96.6466C209.753 97.6463 209.815 98.7262 209.654 99.8865L209.574 100.449H199.346L199.56 99.0297H208.342L207.86 99.3778C207.985 98.5388 207.959 97.7801 207.78 97.1018C207.602 96.4235 207.253 95.879 206.736 95.4685C206.218 95.0579 205.504 94.8526 204.594 94.8526C203.63 94.8526 202.826 95.0757 202.184 95.522C201.541 95.9504 201.032 96.5038 200.658 97.1821C200.301 97.8605 200.06 98.5656 199.935 99.2975L199.828 99.9401C199.667 100.958 199.72 101.85 199.988 102.618C200.256 103.367 200.711 103.957 201.354 104.385C202.014 104.795 202.835 105.001 203.817 105.001C204.638 105.001 205.406 104.885 206.12 104.653C206.834 104.403 207.477 104.019 208.048 103.501L208.771 104.974C208.164 105.545 207.405 105.983 206.495 106.286C205.584 106.589 204.656 106.741 203.71 106.741Z" fill="white"/>
<path d="M211.722 106.5L213.811 93.487H215.926L215.444 96.4324H215.176C215.623 95.4149 216.274 94.6295 217.131 94.0761C218.006 93.5227 219.041 93.246 220.237 93.246C221.201 93.246 222.004 93.4424 222.647 93.8351C223.307 94.21 223.771 94.7991 224.039 95.6023C224.325 96.3878 224.369 97.3963 224.173 98.628L222.941 106.5H220.773L222.004 98.628C222.147 97.8248 222.147 97.1554 222.004 96.6198C221.861 96.0843 221.594 95.6827 221.201 95.4149C220.808 95.1471 220.273 95.0133 219.594 95.0133C218.738 95.0133 217.988 95.2007 217.345 95.5756C216.703 95.9326 216.185 96.4413 215.792 97.1018C215.417 97.7623 215.158 98.5388 215.016 99.4313L213.891 106.5H211.722Z" fill="white"/>
<path d="M230.957 106.741C229.672 106.741 228.735 106.366 228.146 105.617C227.557 104.849 227.378 103.724 227.61 102.243L229.94 87.623H232.108L229.779 102.243C229.69 102.868 229.69 103.376 229.779 103.769C229.868 104.162 230.065 104.447 230.368 104.626C230.689 104.804 231.1 104.894 231.6 104.894C231.814 104.894 232.019 104.885 232.216 104.867C232.43 104.831 232.644 104.795 232.858 104.76L232.537 106.527C232.305 106.598 232.046 106.652 231.76 106.688C231.493 106.723 231.225 106.741 230.957 106.741Z" fill="white"/>
<path d="M240.972 106.741C239.74 106.741 238.669 106.509 237.759 106.045C236.848 105.581 236.143 104.92 235.643 104.064C235.161 103.189 234.92 102.162 234.92 100.984C234.92 99.5741 235.206 98.2889 235.777 97.1286C236.348 95.9504 237.152 95.0133 238.187 94.3171C239.222 93.6031 240.454 93.246 241.882 93.246C243.239 93.246 244.31 93.5584 245.095 94.1832C245.899 94.808 246.443 95.6291 246.729 96.6466C247.014 97.6463 247.077 98.7262 246.916 99.8865L246.836 100.449H236.607L236.821 99.0297H245.604L245.122 99.3778C245.247 98.5388 245.22 97.7801 245.042 97.1018C244.863 96.4235 244.515 95.879 243.997 95.4685C243.48 95.0579 242.766 94.8526 241.855 94.8526C240.891 94.8526 240.088 95.0757 239.446 95.522C238.803 95.9504 238.294 96.5038 237.919 97.1821C237.562 97.8605 237.321 98.5656 237.196 99.2975L237.089 99.9401C236.929 100.958 236.982 101.85 237.25 102.618C237.518 103.367 237.973 103.957 238.615 104.385C239.276 104.795 240.097 105.001 241.079 105.001C241.9 105.001 242.668 104.885 243.382 104.653C244.096 104.403 244.738 104.019 245.31 103.501L246.032 104.974C245.426 105.545 244.667 105.983 243.757 106.286C242.846 106.589 241.918 106.741 240.972 106.741Z" fill="white"/>
<path d="M248.984 106.5L251.072 93.487H253.188L252.679 96.5931H252.411C252.733 95.647 253.286 94.8705 254.071 94.2635C254.857 93.6566 255.856 93.3085 257.07 93.2193L258.115 93.1389L258.141 95.0133L256.642 95.1471C255.696 95.2364 254.928 95.4595 254.339 95.8166C253.75 96.1557 253.295 96.6198 252.974 97.2089C252.67 97.798 252.447 98.5031 252.304 99.3242L251.18 106.5H248.984Z" fill="white"/>
<path d="M260.937 90.2471L261.312 87.8105H263.989L263.588 90.2471H260.937ZM258.58 106.5L260.642 93.487H262.811L260.749 106.5H258.58Z" fill="white"/>
<path d="M277.518 106.741C276.358 106.741 275.349 106.509 274.492 106.045C273.653 105.581 273.002 104.92 272.538 104.064C272.091 103.207 271.868 102.189 271.868 101.011C271.868 99.9044 272.029 98.8869 272.35 97.9586C272.689 97.0126 273.163 96.1825 273.769 95.4685C274.376 94.7544 275.09 94.21 275.912 93.8351C276.751 93.4424 277.697 93.246 278.75 93.246C279.91 93.246 280.91 93.4781 281.749 93.9422C282.606 94.4063 283.257 95.0668 283.703 95.9237C284.15 96.7626 284.373 97.7801 284.373 98.9761C284.373 100.083 284.212 101.109 283.891 102.055C283.57 102.984 283.105 103.805 282.498 104.519C281.892 105.215 281.169 105.759 280.33 106.152C279.491 106.545 278.553 106.741 277.518 106.741ZM277.598 105.001C278.58 105.001 279.41 104.724 280.089 104.171C280.785 103.617 281.302 102.877 281.642 101.948C281.999 101.02 282.177 100.003 282.177 98.8958C282.177 97.6106 281.865 96.6377 281.24 95.9772C280.633 95.3167 279.776 94.9865 278.669 94.9865C277.688 94.9865 276.849 95.2632 276.153 95.8166C275.474 96.3699 274.957 97.1018 274.6 98.0122C274.243 98.9226 274.064 99.949 274.064 101.091C274.064 102.359 274.376 103.332 275.001 104.01C275.626 104.671 276.492 105.001 277.598 105.001ZM280.919 90.1936L281.267 87.8908H283.596L283.221 90.1936H280.919ZM276.26 90.1936L276.634 87.8908H278.91L278.589 90.1936H276.26Z" fill="white"/>
<path d="M291.754 106.741C290.754 106.741 289.88 106.518 289.13 106.072C288.38 105.608 287.791 104.956 287.363 104.117C286.952 103.278 286.747 102.296 286.747 101.172C286.747 99.7259 286.997 98.4049 287.497 97.2089C288.014 95.9951 288.755 95.0311 289.719 94.3171C290.701 93.6031 291.879 93.246 293.253 93.246C294.307 93.246 295.244 93.5049 296.065 94.0225C296.886 94.5402 297.448 95.3435 297.752 96.4324L297.564 96.4056L298.93 87.623H301.099L298.1 106.5H295.985L296.413 103.742H296.681C296.36 104.349 295.958 104.876 295.476 105.322C295.012 105.768 294.458 106.116 293.816 106.366C293.191 106.616 292.504 106.741 291.754 106.741ZM292.45 105.001C293.45 105.001 294.289 104.724 294.967 104.171C295.645 103.617 296.163 102.877 296.52 101.948C296.877 101.02 297.056 100.003 297.056 98.8958C297.056 97.6106 296.743 96.6377 296.119 95.9772C295.494 95.3167 294.637 94.9865 293.548 94.9865C292.566 94.9865 291.727 95.2632 291.031 95.8166C290.353 96.3699 289.835 97.1018 289.478 98.0122C289.121 98.9226 288.943 99.949 288.943 101.091C288.943 102.359 289.255 103.332 289.88 104.01C290.504 104.671 291.361 105.001 292.45 105.001Z" fill="white"/>
<path d="M306.802 106.741C305.874 106.741 305.08 106.545 304.419 106.152C303.777 105.759 303.322 105.17 303.054 104.385C302.786 103.582 302.75 102.564 302.947 101.332L304.178 93.487H306.347L305.116 101.332C304.991 102.136 304.991 102.805 305.116 103.341C305.24 103.876 305.499 104.278 305.892 104.546C306.285 104.813 306.802 104.947 307.445 104.947C308.284 104.947 309.007 104.769 309.614 104.412C310.221 104.037 310.721 103.519 311.113 102.859C311.506 102.198 311.774 101.422 311.917 100.529L313.014 93.487H315.183L313.122 106.5H311.006L311.461 103.555H311.729C311.319 104.555 310.676 105.34 309.801 105.911C308.945 106.465 307.945 106.741 306.802 106.741ZM311.328 90.1668L311.676 87.864H314.005L313.63 90.1668H311.328ZM306.669 90.1668L307.043 87.864H309.319L308.998 90.1668H306.669Z" fill="white"/>
<path d="M321.196 106.741C319.911 106.741 318.973 106.366 318.384 105.617C317.795 104.849 317.617 103.724 317.849 102.243L320.178 87.623H322.347L320.018 102.243C319.928 102.868 319.928 103.376 320.018 103.769C320.107 104.162 320.303 104.447 320.607 104.626C320.928 104.804 321.339 104.894 321.839 104.894C322.053 104.894 322.258 104.885 322.454 104.867C322.669 104.831 322.883 104.795 323.097 104.76L322.776 106.527C322.544 106.598 322.285 106.652 321.999 106.688C321.731 106.723 321.464 106.741 321.196 106.741Z" fill="white"/>
<path d="M329.119 106.741C327.834 106.741 326.896 106.366 326.307 105.617C325.718 104.849 325.54 103.724 325.772 102.243L328.101 87.623H330.27L327.941 102.243C327.852 102.868 327.852 103.376 327.941 103.769C328.03 104.162 328.226 104.447 328.53 104.626C328.851 104.804 329.262 104.894 329.762 104.894C329.976 104.894 330.181 104.885 330.377 104.867C330.592 104.831 330.806 104.795 331.02 104.76L330.699 106.527C330.467 106.598 330.208 106.652 329.922 106.688C329.654 106.723 329.387 106.741 329.119 106.741Z" fill="white"/>
<path d="M339.134 106.741C337.902 106.741 336.831 106.509 335.92 106.045C335.01 105.581 334.305 104.92 333.805 104.064C333.323 103.189 333.082 102.162 333.082 100.984C333.082 99.5741 333.368 98.2889 333.939 97.1286C334.51 95.9504 335.314 95.0133 336.349 94.3171C337.384 93.6031 338.616 93.246 340.044 93.246C341.401 93.246 342.472 93.5584 343.257 94.1832C344.06 94.808 344.605 95.6291 344.89 96.6466C345.176 97.6463 345.239 98.7262 345.078 99.8865L344.998 100.449H334.769L334.983 99.0297H343.766L343.284 99.3778C343.409 98.5388 343.382 97.7801 343.204 97.1018C343.025 96.4235 342.677 95.879 342.159 95.4685C341.642 95.0579 340.928 94.8526 340.017 94.8526C339.053 94.8526 338.25 95.0757 337.607 95.522C336.965 95.9504 336.456 96.5038 336.081 97.1821C335.724 97.8605 335.483 98.5656 335.358 99.2975L335.251 99.9401C335.09 100.958 335.144 101.85 335.412 102.618C335.679 103.367 336.135 103.957 336.777 104.385C337.438 104.795 338.259 105.001 339.241 105.001C340.062 105.001 340.829 104.885 341.543 104.653C342.257 104.403 342.9 104.019 343.471 103.501L344.194 104.974C343.587 105.545 342.829 105.983 341.918 106.286C341.008 106.589 340.08 106.741 339.134 106.741Z" fill="white"/>
<path d="M347.146 106.5L349.234 93.487H351.35L350.868 96.4324H350.6C351.046 95.4149 351.698 94.6295 352.555 94.0761C353.429 93.5227 354.465 93.246 355.661 93.246C356.624 93.246 357.428 93.4424 358.07 93.8351C358.731 94.21 359.195 94.7991 359.463 95.6023C359.748 96.3878 359.793 97.3963 359.597 98.628L358.365 106.5H356.196L357.428 98.628C357.571 97.8248 357.571 97.1554 357.428 96.6198C357.285 96.0843 357.017 95.6827 356.624 95.4149C356.232 95.1471 355.696 95.0133 355.018 95.0133C354.161 95.0133 353.411 95.2007 352.769 95.5756C352.126 95.9326 351.608 96.4413 351.216 97.1018C350.841 97.7623 350.582 98.5388 350.439 99.4313L349.315 106.5H347.146Z" fill="white"/>
<path d="M367.559 106.741C366.559 106.741 365.684 106.518 364.935 106.072C364.185 105.608 363.596 104.956 363.167 104.117C362.757 103.278 362.552 102.296 362.552 101.172C362.552 99.7259 362.802 98.4049 363.301 97.2089C363.819 95.9951 364.56 95.0311 365.524 94.3171C366.506 93.6031 367.684 93.246 369.058 93.246C370.111 93.246 371.049 93.5049 371.87 94.0225C372.691 94.5402 373.253 95.3435 373.557 96.4324L373.369 96.4056L374.735 87.623H376.904L373.905 106.5H371.789L372.218 103.742H372.486C372.164 104.349 371.763 104.876 371.281 105.322C370.817 105.768 370.263 106.116 369.621 106.366C368.996 106.616 368.309 106.741 367.559 106.741ZM368.255 105.001C369.255 105.001 370.094 104.724 370.772 104.171C371.45 103.617 371.968 102.877 372.325 101.948C372.682 101.02 372.86 100.003 372.86 98.8958C372.86 97.6106 372.548 96.6377 371.923 95.9772C371.299 95.3167 370.442 94.9865 369.353 94.9865C368.371 94.9865 367.532 95.2632 366.836 95.8166C366.157 96.3699 365.64 97.1018 365.283 98.0122C364.926 98.9226 364.747 99.949 364.747 101.091C364.747 102.359 365.06 103.332 365.684 104.01C366.309 104.671 367.166 105.001 368.255 105.001Z" fill="white"/>
<path d="M380.331 90.2471L380.706 87.8105H383.384L382.982 90.2471H380.331ZM377.975 106.5L380.037 93.487H382.206L380.144 106.5H377.975Z" fill="white"/>
<path d="M384.198 106.5L386.287 93.487H388.402L387.893 96.5931H387.626C387.947 95.647 388.5 94.8705 389.286 94.2635C390.071 93.6566 391.071 93.3085 392.285 93.2193L393.329 93.1389L393.356 95.0133L391.856 95.1471C390.91 95.2364 390.143 95.4595 389.553 95.8166C388.964 96.1557 388.509 96.6198 388.188 97.2089C387.884 97.798 387.661 98.5031 387.519 99.3242L386.394 106.5H384.198Z" fill="white"/>
<path d="M396.151 90.2471L396.526 87.8105H399.204L398.802 90.2471H396.151ZM393.795 106.5L395.857 93.487H398.025L395.964 106.5H393.795Z" fill="white"/>
<path d="M400.018 106.5L402.107 93.487H404.222L403.713 96.5931H403.445C403.767 95.647 404.32 94.8705 405.106 94.2635C405.891 93.6566 406.891 93.3085 408.105 93.2193L409.149 93.1389L409.176 95.0133L407.676 95.1471C406.73 95.2364 405.962 95.4595 405.373 95.8166C404.784 96.1557 404.329 96.6198 404.008 97.2089C403.704 97.798 403.481 98.5031 403.338 99.3242L402.214 106.5H400.018Z" fill="white"/>
<defs>
<linearGradient id="paint0_linear_2_175" x1="245.494" y1="11.3047" x2="236.213" y2="45.9422" gradientUnits="userSpaceOnUse">
<stop stop-color="white" stop-opacity="0"/>
<stop offset="1" stop-color="white" stop-opacity="0.4"/>
</linearGradient>
</defs>
</svg>
