<svg width="933" height="247" viewBox="0 0 933 247" fill="none" xmlns="http://www.w3.org/2000/svg">
<path d="M55.0664 116.199C63.8744 115.646 76.048 116.032 85.0791 116.024L144.962 116.084C165.056 116.093 185.407 115.509 205.415 116.455C208.458 116.599 210.04 123.063 208.703 125.729C207.337 128.451 204.599 130.43 203.66 133.081C198.804 146.792 194.813 160.827 190.021 174.551C188.898 178.158 186.352 186.9 183.32 187.979C177.066 190.202 161.617 189.42 154.979 189.414L118.04 189.41L94.3857 189.414C89.151 189.41 83.7592 189.56 78.5586 188.873C76.0933 188.547 73.9312 185.325 72.8945 183.23C70.6568 178.639 69.4945 173.494 67.9902 168.612C64.2569 156.498 60.0025 144.584 56.5137 132.391C56.1653 131.174 53.3904 128.593 52.5361 127.3C51.1434 125.192 51.1386 123.064 51.3398 120.594C51.5813 118.418 53.3756 117.331 55.0664 116.199ZM84.7207 132.356C83.3585 133.512 81.6597 134.638 81.4824 136.547C81.202 139.573 87.06 169.749 88.6094 171.464C89.7931 172.774 91.5437 173.36 93.2773 173.524C94.3569 172.856 96.5669 171.496 96.5332 170.025C96.2968 159.723 93.4686 149.17 91.668 139.017C90.8781 134.563 89.5231 132.228 84.7207 132.356ZM143.721 132.111C142.733 132.487 140.608 133.29 140.392 134.46C138.519 144.634 138.435 155.375 137.478 165.715C137.073 170.086 137.856 172.71 142.599 173.463C149.427 169.884 146.718 163.405 148.033 156.633C148.322 155.144 148.76 148.782 148.643 147.235C148.179 141.114 151.974 133.081 143.721 132.111ZM113.798 132.033C112.502 133.142 110.473 134.593 110.541 136.459C110.817 144.056 111.364 152.013 112.24 159.573C112.893 165.201 110.989 174.039 118.705 173.342C119.795 172.617 121.857 171.264 121.848 169.763C121.784 159.36 120.758 148.85 120.145 138.446C119.958 135.284 119.434 132.992 115.871 132.319C115.185 132.195 114.493 132.099 113.798 132.033ZM174.545 132.41C173.681 132.251 172.685 132.415 171.818 132.527C166.949 136.56 166.413 150.805 164.935 157.194C163.769 162.234 159.41 174.859 169.051 173.091C172.49 170.877 172.928 167.103 173.741 163.361C174.789 158.546 179.731 137.606 177.56 134.319C176.887 133.301 175.735 132.63 174.545 132.41Z" fill="#1B1F2A"/>
<path d="M376.499 85.2676C385.416 84.5163 393.8 84.6956 399.889 92.5469C405.279 99.4976 405.459 108.82 404.467 117.195C403.043 129.21 398.698 141.2 389.051 149.037C382.8 154.07 373.152 156.552 365.257 155.526C358.687 154.672 354.882 151.368 351.01 146.31C349.748 154.951 347.966 164.232 346.506 172.923L345.365 180.337C339.945 180.326 331.247 180.557 326.144 180.036C327.827 170.18 329.207 160.139 331.029 150.351C334.903 129.538 339.917 107.08 342.608 86.1562C348.653 85.9732 355.488 86.1356 361.593 86.1475C360.949 88.5607 360.362 92.5111 359.916 95.0781C365.964 88.8514 367.911 86.8854 376.499 85.2676ZM385.184 111.87C384.725 102.183 377.609 100.353 369.321 101.193C362.545 103.709 358.828 107.544 356.779 114.662C353.224 127.013 353.353 142.177 370.886 139.264C382.216 135.643 385.688 122.534 385.184 111.87Z" fill="#1B1F2A"/>
<path d="M719.062 85.2861C726.388 84.7543 733.982 85.1984 739.358 90.7637C752.707 104.57 744.554 135.121 732.402 146.986C726.429 152.826 718.343 156.001 709.988 155.791C701.593 155.653 697.982 152.292 692.614 146.713C691.207 155.706 690.256 163.51 688.535 172.611L687.188 180.312C680.7 180.343 674.212 180.306 667.729 180.2C673.315 148.534 679.684 117.975 684.952 86L703.187 86.1572C702.786 89.5335 702.399 91.7769 701.661 95.0967C708.486 88.4684 709.725 86.6257 719.062 85.2861ZM720.883 102.278C717.723 100.589 714.122 100.724 710.681 101.227C705.081 103.618 701.593 106.397 699.544 112.392C696.366 121.699 693.644 132.56 702.822 139.154C706.296 139.499 708.449 139.81 711.95 139.294C717.181 137.789 719.289 135.731 722.203 130.908C725.335 125.722 727.489 114.184 725.827 108.424C725.094 105.783 723.305 103.561 720.883 102.278Z" fill="#1F9B4B"/>
<path d="M296.214 58.018C298.383 57.7712 301.593 57.809 303.808 57.9333C324.77 59.1081 332.809 67.8597 331.891 88.4159L312.817 88.3895C312.759 78.276 308.628 74.8241 298.234 74.4767C290.876 74.2308 282.734 77.4723 282.932 85.9967C282.977 87.9183 283.497 90.847 285.253 92.2522C300.043 100.752 328.016 99.6546 328.39 122.523C328.486 131.023 325.223 139.217 319.312 145.324C311.06 153.788 298.833 156.013 287.536 156.154C287.06 156.149 286.586 156.141 286.11 156.13C272.063 155.806 256.706 151.089 254.012 135.041C253.299 130.792 253.469 127.764 253.6 123.435C260.046 123.301 266.828 123.4 273.301 123.395C273.293 128.322 273.419 132.622 277.531 136.136C283.618 141.339 299.536 140.727 304.552 134.335C316.842 118.674 290.954 115.581 281.404 112.005C272.603 108.71 262.954 103.232 262.373 92.6387C261.946 84.6375 263.687 75.9684 269.122 69.8022C276.844 61.041 284.998 58.951 296.214 58.018Z" fill="#1B1F2A"/>
<path d="M570.265 58.0053C571.085 57.8587 572.118 57.8969 572.974 57.845C586.674 57.0086 602.181 59.9956 607.134 74.8337C608.76 79.7067 608.332 83.685 607.772 88.6236C601.571 88.7147 595.374 88.6823 589.178 88.5271C589.173 88.4437 589.164 88.36 589.16 88.2766C588.909 84.5879 588.654 80.0186 585.221 77.5662C567.934 65.2297 543.18 89.6003 571.79 96.5251C584.552 100.713 602.445 103.493 603.16 120.133C604.189 143.92 588.704 154.29 566.787 156.175C553.197 156.454 537.202 154.301 531.211 139.825C528.889 134.207 529.353 129.099 529.79 123.234C536.251 123.163 542.716 123.206 549.172 123.361C548.757 137.659 555.896 139.777 568.995 139.189C576.421 138.855 584.529 133.534 583.286 125.204C581.934 116.149 564.456 114.888 557.59 111.97C536.123 104.988 533.769 87.0418 545.771 70.0144C551.193 62.3237 560.786 59.1017 570.265 58.0053Z" fill="#1F9B4B"/>
<path d="M442.442 84.8584C450.47 84.1585 459.899 84.3 466.765 89.0264C482.199 99.6513 477.546 126.655 468.217 139.993C461.529 149.551 454.27 153.171 443.028 155.162C434.158 156.096 424.119 155.759 416.844 149.931C402.746 138.634 407.993 110.878 417.568 98.292C424.082 89.7282 432.213 86.1666 442.442 84.8584ZM444.777 100.336C429.644 102.198 426.803 117.231 427.465 130.202C427.884 138.41 433.748 139.66 440.72 139.72C454.673 137.689 458.534 121.738 457.427 109.729C456.822 103.144 450.718 100.362 444.777 100.336Z" fill="#1B1F2A"/>
<path d="M642.928 85.3291C647.313 84.9384 652.567 84.9754 656.856 86.0127C662.415 87.3132 667.205 90.8262 670.119 95.7393C675.104 104.073 673.292 115.996 671.07 124.939C656.564 125.048 641.362 124.497 627.007 125.163C626.839 134.895 629.043 141.961 641.167 140.04C645.901 139.29 649.002 136.271 651.575 132.345L668.684 134.515C662.738 147.781 654.989 153.651 640.629 155.199C624.412 156.949 609.857 151.146 608.764 132.79C607.713 115.113 613.257 96.4576 630.167 88.1514C634.419 86.0473 638.294 85.7266 642.928 85.3291ZM655.536 113.314C655.791 103.026 652.522 99.0849 641.65 99.791C634.142 102.187 631.269 106.2 628.665 113.336L644.345 113.245L655.536 113.314Z" fill="#1F9B4B"/>
<path d="M783.39 85.333C792.687 84.4347 803.591 85.5136 809.205 94.002C815.752 103.908 813.389 114.231 811.372 124.961C796.625 124.78 781.874 124.822 767.123 125.088C767.086 126.918 766.927 130.945 767.473 132.527C771.625 144.622 786.832 142.128 792.022 132.241C797.772 133.211 803.199 133.83 808.991 134.493C807.447 138.332 805.739 141.394 803.053 144.646C793.528 157.034 767.796 159.379 756.196 149.388C742.774 137.829 749.166 108.624 759.528 96.7227C766.612 88.5794 773.11 86.087 783.39 85.333ZM783.886 99.8086C783.513 99.8145 783.144 99.8339 782.771 99.8662C773.961 102.232 772.54 105.007 769.599 113.155C774.439 113.224 779.279 113.254 784.119 113.244L795.624 113.263C795.605 104.55 793.87 99.5997 783.886 99.8086Z" fill="#1F9B4B"/>
<path d="M833.307 68.3457L851.619 68.3726C850.64 74.3102 849.538 80.2278 848.318 86.1203L862.541 86.0939C862.013 91.1764 860.97 96.0735 859.7 101.013C854.974 101.118 850.057 101.022 845.318 100.996C844.694 106.153 843.874 111.284 842.859 116.378C841.657 122.273 839.736 128.866 839.818 134.847C839.895 140.259 849.279 138.7 852.675 138.391C852.124 142.536 851.491 145.921 850.64 150.022L849.77 153.91C840.232 155.138 819.266 156.14 819.999 141.258C820.627 128.388 824.475 113.956 826.988 101.051C823.746 101.089 820.609 100.878 817.372 100.692C817.777 96.5275 819.234 90.39 820.117 86.1467L830.184 86.0743C830.589 80.2173 832.073 74.1089 833.307 68.3457Z" fill="#1F9B4B"/>
<path d="M123.947 32.4885C149.979 28.7016 178.127 46.7759 186.141 71.7721C188.443 78.956 183.041 80.0179 177.134 81.9435C169.404 61.7624 159.283 50.0867 137.525 46.0847C118.326 42.8946 97.8281 52.3811 89.1212 69.9462C87.662 72.8905 84.6526 80.8106 81.9737 82.2012C79.3935 82.0787 75.413 77.8746 73.3901 76.0478C81.364 50.5898 97.4338 36.6421 123.947 32.4885Z" fill="#1F9B4B"/>
<path d="M522.679 85.2537C526.03 85.1262 527.742 85.2022 531.083 85.5355C530.414 90.7878 529.03 97.6165 528.11 102.955C521.882 102.733 515.194 102.153 509.913 106.136C500.779 113.026 501.69 124.987 499.682 134.997C498.344 141.658 496.946 147.756 495.908 154.396C492.73 154.428 479.618 154.743 477.414 153.953L477.2 152.89C480.911 130.76 485.518 108.053 489.156 86.0469C495.22 85.9635 501.617 86.1029 507.709 86.1393C507.185 89.6859 506.666 92.6406 505.911 96.144C511.911 89.649 513.855 86.876 522.679 85.2537Z" fill="#1B1F2A"/>
<path d="M869.557 86.0833C875.512 85.8907 882.114 86.0172 888.119 86.0191C887.901 88.4961 887.496 91.0105 887.018 93.4506C883.057 113.7 879.601 134.14 875.599 154.367C869.284 154.367 862.965 154.273 856.65 154.084C859.336 143.053 861.267 129.788 863.365 118.563C865.378 107.815 867.804 96.8283 869.557 86.0833Z" fill="#1F9B4B"/>
<path d="M59.4221 85.3821C71.5687 84.8585 73.7613 89.0071 83.2067 95.5412C84.8535 96.6804 86.6241 98.1926 88.5436 98.7677C89.6777 98.5113 90.8656 96.4956 91.6168 95.4456C91.9942 98.8615 92.6598 102.689 93.1119 106.183C88.0992 107.035 81.5199 107.006 76.3683 107.028C70.5893 107.009 46.0649 108.461 42.7109 105.375C40.8205 103.636 40.4103 100.641 40.3396 98.219C40.2394 94.7858 40.5883 90.134 43.1705 87.5441C46.2766 84.4286 55.2134 85.3676 59.4221 85.3821Z" fill="#1F9B4B"/>
<path d="M201.485 85.3784C205.72 85.2833 213.544 84.3525 216.76 87.575C219.124 89.9427 219.724 94.2443 219.735 97.4185C219.743 100.073 219.362 103.188 217.359 105.139C213.996 108.414 192.021 107.029 186.314 106.999C183.467 106.986 171.095 107.365 169.412 106.033C169.236 104.24 172.434 100.112 173.784 98.9252C179.611 93.804 186.514 87.5959 194.194 85.7094C195.821 85.3092 199.707 85.3975 201.485 85.3784Z" fill="#1F9B4B"/>
<path d="M149.454 66.8223C165.898 73.834 166.974 75.1522 169.941 93.2801C165.995 95.5067 164.049 101.226 160.987 102.366C155.441 99.5779 149.422 97.4233 144.076 94.3279C143.001 88.6881 141.137 82.7309 139.379 77.2509C142.85 72.7298 145.046 70.4208 149.454 66.8223Z" fill="#1B1F2A"/>
<path d="M109.951 68.3906C111.313 69.238 116.868 75.7753 119.092 77.8981C116.576 83.603 115.299 89.0602 114.3 95.1695C109.988 98.4867 105.113 100.798 100.365 103.577L100.038 103.623C99.0034 103.177 93.8637 96.6134 91.8613 94.8449C92.2711 78.7304 96.0796 74.9252 109.951 68.3906Z" fill="#1B1F2A"/>
<path d="M128.066 55.7001C139.045 54.8227 142.728 56.7087 148.332 65.673C143.509 69.4523 141.604 71.7799 137.609 76.4121L132.401 76.1057C128.518 76.1517 123.878 76.5045 119.942 76.6994L111.543 67.2894C116.155 58.1758 117.708 56.9719 128.066 55.7001Z" fill="#1B1F2A"/>
<path d="M882.965 57.0586C885.378 57.1856 887.391 57.4042 889.367 58.828C891.188 60.1326 892.404 62.1142 892.745 64.3267C893.223 67.2768 892.335 70.6832 890.564 73.0523C887.883 76.6318 886.271 76.8257 882.214 77.5137C880.393 77.4413 877.202 77.0038 875.644 76.0735C873.791 74.9775 872.457 73.1849 871.938 71.0962C869.99 63.0982 876.063 58.6837 882.965 57.0586Z" fill="#1F9B4B"/>
<path d="M590.771 204.057C602.754 203.183 600.979 214.123 593.585 219.029C582.426 220.25 583.605 207.904 590.771 204.057ZM593.276 216.8C597.924 212.846 599.727 204.9 591.09 205.803C588.527 208.349 586.328 212.807 588.869 216.073C590.398 217.134 591.478 217.172 593.276 216.8Z" fill="#1B1F2A"/>
<path d="M659.36 204.011C662.952 203.969 666.448 203.481 669.198 206.121C670.2 207.076 670.765 208.4 670.761 209.784C670.729 212.605 668.301 216.049 666.289 217.944C663.348 219.411 659.96 219.079 656.678 219.055L659.36 204.011ZM666.927 206.838C665.606 205.582 663.03 205.721 661.259 205.768C660.681 209.523 660.038 213.268 659.328 217C661.295 216.94 662.938 216.945 664.873 216.509C666.562 214.85 668.27 212.41 668.266 209.949C668.27 208.771 667.787 207.645 666.927 206.838Z" fill="#1B1F2A"/>
<path d="M143.607 96.8379C145.222 97.0214 158.464 103.308 160.364 105.251L160.155 105.886C157.661 106.445 152.386 106.27 149.612 106.26C143.57 106.428 137.399 106.278 131.348 106.199C136.507 102.877 139.251 101.129 143.607 96.8379Z" fill="#1B1F2A"/>
<path d="M114.642 97.8242C115.685 97.8848 127.149 105.218 128.966 106.276L114.715 106.258L100.166 106.074C102.831 103.952 111.141 99.7835 114.642 97.8242Z" fill="#1B1F2A"/>
<path d="M615.721 203.938C619.395 203.914 623.128 203.428 625.755 206.517C626.62 209.655 624.744 211.19 622.304 212.812C623.032 214.777 624.549 217.706 622.782 219.265L621.944 218.901L622.823 219.123L621.785 218.754L621.185 217.076C620.561 215.202 620.141 213.238 618.129 212.626C616.786 213.784 615.999 216.785 615.225 218.728L614.072 218.92L613.595 218.448C613.317 216.401 615.243 206.739 615.721 203.938ZM623.347 207.746C622.259 205.487 620.383 205.815 618.052 205.838C617.633 207.361 616.914 209.23 617.383 210.659C618.799 211.787 620.16 211.382 621.858 211.075C622.678 209.873 623.256 209.22 623.347 207.746Z" fill="#1B1F2A"/>
<path d="M307.833 203.883C311.619 203.903 315.079 203.404 317.827 206.504C318.742 209.635 316.72 211.373 314.181 212.832C314.984 214.666 316.26 217.232 315.566 219.156L314.711 218.998L313.788 217.557C313.227 215.825 312.298 213.532 310.958 212.296L310.135 212.346C308.352 213.967 308.192 218.587 305.982 219.061C305.394 217.648 307.425 206.377 307.833 203.883ZM309.917 205.803C309.679 207.404 309.22 209.256 309.811 210.696C311.386 212.097 313.186 211.378 314.976 210.506C315.611 208.54 315.809 208.861 315.411 207.021C314.492 206.001 313.569 205.926 312.224 205.855C311.456 205.82 310.686 205.802 309.917 205.803Z" fill="#1B1F2A"/>
<path d="M561.969 203.892C565.584 203.872 571.572 203.319 572.391 208.139C571.79 212.528 566.459 213.152 563.003 213.232C562.248 214.979 562.42 217.887 560.39 218.697C559.525 216.661 561.514 206.639 561.969 203.892ZM564.51 205.787C564.041 207.361 563.272 209.243 563.727 210.766C565.147 212.034 566.24 211.592 568.025 211.255C568.89 209.956 569.436 209.351 569.468 207.78C568.221 205.585 566.905 205.911 564.51 205.787Z" fill="#1B1F2A"/>
<path d="M714.66 203.191C718.238 204.736 720.282 211.213 721.94 214.996C722.518 211.565 722.882 207.56 724.721 204.645L725.332 204.723C725.404 204.934 725.464 205.149 725.509 205.367C726.26 208.694 724.494 217.064 722.613 219.963C720.214 217.51 717.482 210.777 715.939 207.453C715.52 210.114 714.646 217.693 712.702 219.181C711.755 216.101 713.927 206.583 714.66 203.191Z" fill="#1B1F2A"/>
<path d="M446.17 203.297C449.151 204.618 452.035 212.388 453.432 215.6C453.865 212.884 454.556 206.687 456.27 204.688L456.78 205.152C457.445 208.99 456.279 215.912 454.696 219.451C452.056 219.057 448.553 210.478 447.308 207.899C447.284 208.153 447.258 208.406 447.228 208.659C446.906 211.401 446.25 217.682 444.281 219.244L443.792 218.984C443.246 216.265 445.481 206.387 446.17 203.297Z" fill="#1B1F2A"/>
<path d="M492.065 203.248C494.983 204.24 498.157 212.361 500.11 215.499C500.306 212.277 500.137 205.881 501.99 203.758L502.65 203.83C503.461 206.538 501.335 216.351 500.438 219.265L499.873 219.27C497.783 217.931 494.696 210.561 493.476 207.918C492.743 211.816 492.42 214.834 490.763 218.452L490.212 218.63C489.26 215.416 490.986 206.442 492.065 203.248Z" fill="#1B1F2A"/>
<path d="M771.015 203.334C773.373 204.745 775.691 217.428 774.775 219.108L773.96 219.271C772.549 218.111 773.15 217.892 772.426 215.66C771.219 215.019 768.264 215.285 766.753 215.325C765.756 216.744 765.246 217.624 763.816 218.628L763.365 218.396C763.62 215.416 768.929 205.706 771.015 203.334ZM770.96 206.551C770.15 208.234 768.757 210.688 768.734 212.467L769.891 213.429C773.123 211.707 771.88 209.719 770.96 206.551Z" fill="#1B1F2A"/>
<path d="M344.544 203.494L344.946 204.228C344.497 205.546 340.108 209.432 338.776 210.683C340.261 212.986 343.13 216.637 342.771 219.264L341.918 219.249C339.085 217.513 339.173 213.171 336.513 212.371C335.403 213.044 335.211 214.243 334.826 215.496C334.512 217.099 334.463 217.709 333.394 218.994L332.784 218.988C331.841 216.794 333.157 204.459 335.659 203.642L335.906 203.92C336.664 206.469 336.068 208.501 335.746 211.234C338.661 207.942 340.521 205.336 344.544 203.494Z" fill="#1B1F2A"/>
<path d="M280.644 203.6L281.671 203.919C283.818 207.664 278.11 215.852 282.919 216.936C290.198 218.578 287.24 205.785 290.772 203.828L291.542 204.236L291.595 205.47C291.035 210.257 290.897 215.415 286.575 218.551C284.27 220.224 281.298 220.062 279.826 217.415C277.655 213.511 279.56 207.688 280.644 203.6Z" fill="#1B1F2A"/>
<path d="M404.307 203.939C406.412 203.943 412.68 203.593 413.903 204.69L413.742 205.55C412.52 206.286 409.705 205.648 407.304 206.1C406.105 207.315 406.126 208.447 405.653 210.278C407.583 210.286 408.824 210.289 410.732 210.561L410.445 210.625L411.81 210.923L411.825 211.31C409.457 212.426 408.063 212.208 405.399 212.364C405.213 213.744 405.109 215.067 404.995 216.452C407.023 217.861 410.28 215.728 412.171 217.863L411.948 218.627C410.224 219.342 404.495 219.039 402.299 219.007C402.569 214.934 403.669 207.991 404.307 203.939Z" fill="#1B1F2A"/>
<path d="M686.932 203.617L688.498 204.007C689.987 206.751 685.484 215.045 689.391 217.667C696.493 217.917 693.825 205.118 698.009 203.692C698.424 204.48 698.278 204.453 698.255 205.463L698.073 206.831C697.55 210.618 695.514 220.664 689.3 219.743C683.226 218.843 686.072 207.799 686.932 203.617Z" fill="#1B1F2A"/>
<path d="M538.372 204.046C540.876 203.86 542.57 203.648 544.769 204.901C545.579 205.989 545.556 206.25 545.497 207.632C544.163 208.254 541.805 205.268 540.339 205.637C538.645 206.061 537.534 206.602 537.785 208.443C540.098 211.247 544.518 211.221 545.361 214.831C544.751 217.034 542.797 218.174 540.931 219.288C538.272 219.271 533.96 218.935 534.033 215.235C536.246 214.701 539.242 217.238 542.292 216.775C545.497 213.512 537.261 211.51 535.504 209.675C534.402 206.847 536.178 205.645 538.372 204.046Z" fill="#1B1F2A"/>
<path d="M794.102 204.116C796.684 203.881 798.737 203.568 800.909 205.076C801.697 206.604 801.569 205.954 801.328 207.729C799.347 206.846 797.335 205.709 795.222 205.833C793.861 206.619 794.275 206.175 793.629 207.745C794.744 210.201 801.25 210.797 801.127 215.882C799.93 218.099 797.927 218.872 795.632 219.567C793.979 219.331 792.796 219.312 791.525 218.221C790.824 217.066 790.369 216.482 790.273 215.112C792.441 214.5 795.664 219.051 799.129 215.485C799.156 212.079 784.828 209.703 794.102 204.116Z" fill="#1B1F2A"/>
<path d="M383.053 211.047C384.724 207.824 385.199 206.355 388.344 204.479L389.019 204.696C388.886 206.235 387.2 208.076 386.199 209.38C383.628 213.244 383.456 216.652 381.323 219.15C380.634 218.675 381.301 213.751 380.774 212.064C379.863 209.145 378.786 206.527 377.632 203.709C381.199 204.029 381.887 208.024 383.053 211.047Z" fill="#1B1F2A"/>
<path d="M741.476 203.434C741.567 203.464 741.653 203.496 741.74 203.53C744.103 204.458 745.259 208.021 746.325 210.386C748.027 207.756 749.002 205.873 751.761 204.3L752.152 204.658C751.738 206.547 749.68 208.811 748.423 210.408C746.12 213.585 746.834 215.593 744.635 219.083L744.321 218.754C744.38 217.347 744.59 213.688 744.317 212.45C743.779 210.024 741.07 205.996 741.476 203.434Z" fill="#1B1F2A"/>
<path d="M254.398 204.183C259.721 203.914 263.233 203.832 268.444 204.892C265.347 205.639 263.86 205.718 260.712 205.915C260.051 208.604 259.603 211.779 259.144 214.539C259.115 214.726 259.085 214.913 259.054 215.1C258.824 216.481 258.648 218.117 257.522 218.919C256.368 216.634 257.762 208.755 258.194 206.016C256.641 205.88 254.663 205.901 253.691 204.92L254.398 204.183Z" fill="#1B1F2A"/>
<path d="M360.879 203.223L362.335 204.003C363.267 206.617 360.725 216.555 359.883 219.538C359.5 219.491 359.008 219.219 358.644 219.047C357.896 216.787 360.036 205.768 360.879 203.223Z" fill="#1B1F2A"/>
<path d="M473.981 203.225C474.955 203.783 474.65 203.494 475.174 204.461C475.201 207.986 474.523 217.174 472.752 219.901L471.732 219.224C470.83 217.196 473.166 205.638 473.981 203.225Z" fill="#1B1F2A"/>
<path d="M818.556 203.391L819.68 204.205C820.304 207.178 818.055 216.711 817.09 219.752L816.298 219.261C815.692 217.065 817.39 205.494 818.556 203.391Z" fill="#1B1F2A"/>
<path d="M429.496 203.404C431.198 205.059 429.461 207.714 428.558 209.446L428.192 209.191C427.654 207.429 428.745 205.072 429.496 203.404Z" fill="#1B1F2A"/>
</svg>
