<svg width="812" height="477" viewBox="0 0 812 477" fill="none" xmlns="http://www.w3.org/2000/svg">
<g clip-path="url(#clip0_2_110)">
<path d="M113.137 315.252C122.88 314.987 133.386 315.103 143.167 315.247L143.131 430.671C134.186 430.699 124.368 430.909 115.486 430.743C115.537 408.61 114.898 384.248 115.472 362.357C105.948 374.967 98.0419 387.625 89.3271 400.735C87.5893 403.348 80.1243 415.39 78.745 416.968C74.1259 417.043 69.5065 417.095 64.887 417.123C61.7524 413.392 59.1535 408.348 56.4633 404.236L37.7948 376.016C34.7965 371.496 31.1698 365.418 27.799 361.334C28.3233 374.13 28.2023 387.53 28.129 400.382C28.0725 410.291 28.3249 420.85 28.0957 430.683C19.1582 430.739 8.83252 431.032 0 430.612V315.285C9.52879 315.213 21.9346 314.831 31.2461 315.325C43.7505 337.111 58.2245 359.139 71.9286 380.197C73.482 376.72 77.1055 371.848 79.2905 368.503L91.1549 350.102C98.3436 338.977 105.52 326.038 113.137 315.252Z" fill="#021A3C"/>
<path d="M694.32 315.197C703.915 315.115 713.506 315.139 723.096 315.267C725.753 317.817 734.797 329.201 737.715 332.702C747.468 344.573 757.333 356.355 767.301 368.046C772.578 374.354 779.58 383.219 785.099 388.831C785.384 364.317 784.904 339.641 785.352 315.168L812 315.256V430.617C803.182 430.763 794.365 430.795 785.543 430.712C781.431 426.953 777.895 421.79 774.14 417.568C756.274 397.449 739.792 375.189 721.681 355.364C722.034 364.993 721.772 374.079 721.764 383.668L721.824 430.68L694.264 430.72L694.32 315.197Z" fill="#021A3C"/>
<path d="M761.635 477C757.155 473.435 756.346 466.017 759.966 461.687C761.23 460.196 763.03 459.264 764.977 459.086C772.724 458.412 772.717 472.698 768.744 476.453C768.549 476.639 768.351 476.821 768.145 477H761.635Z" fill="black"/>
<path d="M764.989 461.917L766.702 462.512C768.926 464.788 768.581 470.779 767.265 473.455C766.741 474.514 765.738 474.597 764.743 474.895C760.049 473.388 760.568 467.468 762.166 463.594C762.606 462.532 763.946 462.278 764.989 461.917Z" fill="#FBFBFB"/>
<path d="M93.3528 477C89.2595 473.059 88.4412 465.263 92.5496 461.195C93.8381 459.918 95.589 459.216 97.4029 459.248C104.954 459.379 104.561 473.051 100.041 477H93.3528Z" fill="black"/>
<path d="M95.0621 461.877C102.115 461.932 101.082 471.992 98.1832 474.676C96.9129 474.716 95.434 474.938 94.5296 473.955C91.8898 471.092 92.7284 464.486 95.0621 461.877Z" fill="#FBFBFB"/>
<path d="M478.354 459.545C481.332 459.51 486.256 459.085 488.822 460.905C490.308 461.96 488.171 465.798 488.433 467.146C489.365 471.936 491.95 472.578 487.941 477H478.315C478.128 471.67 478.148 464.906 478.354 459.545Z" fill="black"/>
<path d="M481.36 469.026C482.153 469.006 482.95 469.002 483.747 469.006C485.63 469.038 485.864 469.209 487.014 470.382C487.541 471.853 487.251 472.737 486.974 474.28C485.031 474.7 483.413 475.259 481.808 474.006C481.102 472.69 481.328 470.592 481.36 469.026Z" fill="#FBFBFB"/>
<path d="M481.415 461.941C483.81 461.834 484.991 461.453 486.676 462.932C487.152 464.336 486.891 464.915 486.538 466.314C484.983 466.58 483.172 467.028 481.859 466.295C481.007 465.046 481.328 463.559 481.415 461.941Z" fill="#FBFBFB"/>
<path d="M154.047 459.55C164.341 459.403 166.167 458.487 164.174 468.011C163.62 470.656 167.801 471.992 163.469 477H154.002C153.719 471.314 153.866 465.247 154.047 459.55Z" fill="black"/>
<path d="M157.063 468.867C159.081 468.986 161.011 468.816 162.383 470.263C163.013 471.607 162.782 472.654 162.638 474.113L162.099 474.244C160.014 474.751 159.205 475.215 157.518 474.184C156.748 472.916 157.018 470.457 157.063 468.867Z" fill="#FBFBFB"/>
<path d="M157.126 461.877C159.284 461.877 160.714 461.556 162.178 463.265C162.481 464.55 162.291 464.875 161.86 466.144C160.066 466.54 158.875 466.969 157.353 466.12C156.732 464.82 157.021 463.376 157.126 461.877Z" fill="#FBFBFB"/>
<path d="M115.862 459.32C122.08 459.308 131.685 458.991 125.375 469.284C124.794 470.232 127.006 475.537 127.454 477H124.967H118.464H116.026C115.699 471.746 115.716 464.661 115.862 459.32Z" fill="black"/>
<path d="M118.464 477C118.454 475.073 118.22 472.531 119.075 470.894L119.898 470.239C122.745 471.005 123.652 474.569 124.967 477H118.464Z" fill="#FBFBFB"/>
<path d="M118.725 461.885C120.741 462.031 123.002 462.012 124.157 463.911C124.308 465.66 124.385 464.954 123.553 466.738C122.226 467.123 120.105 467.309 118.671 467.479C118.568 465.56 118.655 463.796 118.725 461.885Z" fill="#FBFBFB"/>
<path d="M733.123 477C733.08 472.991 732.501 463.201 733.908 459.926L734.598 459.308C737.968 459.787 741.267 468.677 742.627 471.706C742.679 468.467 742.488 462.361 743.896 459.684L744.368 459.573C746.279 462.202 745.886 473.562 745.43 477H742.425H736.01H733.123Z" fill="black"/>
<path d="M736.287 464.308C737.96 467.781 740.653 473.875 742.425 477H736.01C736.196 472.773 736.291 468.538 736.287 464.308Z" fill="#FBFBFB"/>
<path d="M402.083 477C401.999 474.169 400.564 459.422 403.986 459.058C406.619 460.568 409.739 469.755 411.46 473.042C411.364 469.958 410.734 462.325 412.046 459.966C413.038 459.506 412.621 459.597 413.839 459.855C414.421 461.778 414.398 474.74 414.132 477H410.817H404.434H402.083Z" fill="black"/>
<path d="M404.739 464.34C407.372 468.654 408.117 472.889 410.817 477H404.434C404.525 472.841 404.553 468.479 404.739 464.34Z" fill="#FBFBFB"/>
<path d="M202.253 477C202.217 474.264 201.77 461.346 202.705 459.601C203.718 459.355 203.786 459.419 204.819 459.736C205.667 461.219 205.367 464.736 205.343 466.548C207.182 466.56 209.371 466.631 211.18 466.552C211.223 464.435 211.094 461.81 211.874 459.902L212.436 459.438C215.838 460.517 214.3 473.57 214.173 477H211.525H205.168H202.253Z" fill="black"/>
<path d="M205.399 469.296C207.277 469.28 209.424 469.316 211.275 469.24C211.31 470.953 211.312 475.493 211.525 477H205.168C205.32 474.434 205.397 471.865 205.399 469.296Z" fill="#FBFBFB"/>
<path d="M526.781 477C526.611 473.051 525.814 463.166 527.293 459.997L528.058 459.375L528.898 459.561C529.866 461.405 529.616 464.399 529.608 466.528L535.294 466.56C535.314 464.756 535.175 461.821 535.805 460.251L536.416 459.68L537.867 459.728C539.037 461.112 538.39 474.581 538.184 477H535.686H529.295H526.781Z" fill="black"/>
<path d="M529.584 469.36L535.536 469.344L535.686 477H529.295L529.584 469.36Z" fill="#FBFBFB"/>
<path d="M501.283 477C501.91 473.321 504.503 461.37 507.29 459.364C510.371 458.769 511.421 462.972 512.036 465.351C512.976 468.963 514.205 472.984 514.851 476.628L514.918 477H512.349H504.162H501.283Z" fill="black"/>
<path d="M505.514 472.646C510.323 472.614 510.696 472.21 512.349 477H504.162L505.514 472.646Z" fill="#FBFBFB"/>
<path d="M508.281 462.52C509.276 464.562 510.243 467.349 509.934 469.645L508.824 470.474C506.366 469.562 506.084 469.201 506.925 466.33C507.298 465.053 507.817 463.772 508.281 462.52Z" fill="#FBFBFB"/>
<path d="M176.98 477C177.708 473.075 179.912 459.887 184.261 459.352C187.699 460.866 189.83 473.214 190.229 477H188.151H179.715H176.98Z" fill="black"/>
<path d="M181.051 472.71C182.901 472.765 185.043 472.777 186.864 472.928L188.151 477H179.715C180.147 475.608 180.586 474.078 181.051 472.71Z" fill="#FBFBFB"/>
<path d="M183.824 462.539C185.021 463.308 185.658 467.951 185.738 469.45L185.131 470.096C183.408 469.934 183.437 470.223 182.362 469.272C181.929 467.281 183.133 464.672 183.824 462.539Z" fill="#FBFBFB"/>
<path d="M669.432 477C670.261 472.936 671.323 468.82 672.418 464.815C673.056 462.472 673.544 458.424 676.64 459.264C679.784 461.85 682.017 472.976 682.512 477H680.244H672.013H669.432Z" fill="black"/>
<path d="M673.246 472.587L678.916 472.809L680.244 477H672.013L673.246 472.587Z" fill="#FBFBFB"/>
<path d="M675.828 462.606C676.799 463.336 677.834 468.423 677.608 469.871L676.727 470.33C675.756 470.219 675.376 470.156 674.44 469.886C673.223 468.126 675.11 464.514 675.828 462.606Z" fill="#FBFBFB"/>
<path d="M376.374 477C377.083 473.761 379.703 462.067 382.307 459.796C382.907 459.272 383.391 459.577 384.081 459.772C386.708 462.071 389.047 473.15 389.929 477H387.132H379.047H376.374Z" fill="black"/>
<path d="M380.573 472.627L385.667 472.686C386.114 474.011 386.637 475.732 387.132 477H379.047L380.573 472.627Z" fill="#FBFBFB"/>
<path d="M383.239 462.258C384.274 463.356 385.324 468.832 384.011 470.438C383.308 470.236 382.232 470.085 381.935 469.585C381.004 468.023 382.668 463.995 383.239 462.258Z" fill="#FBFBFB"/>
<path d="M67.487 459.573C70.9361 459.462 74.5183 458.915 77.3417 461.389C79.7642 463.51 79.8145 466.544 77.5236 468.8C75.3049 470.988 73.3602 470.782 70.4686 470.731L70.1895 477H67.6686C67.2912 471.722 67.4252 464.962 67.487 459.573Z" fill="black"/>
<path d="M70.5036 461.877C72.4789 461.976 74.4796 461.909 75.4807 463.824C75.7749 465.354 75.4755 465.965 75.0192 467.42C73.2544 468.043 72.4428 468.649 70.839 467.551C70.1492 466.108 70.4429 463.57 70.5036 461.877Z" fill="#FBFBFB"/>
<path d="M694.847 477L694.423 475.545C696.068 472.924 699.331 476.298 701.845 473.503C702.063 472.246 702.13 472.147 701.738 470.981C699.486 469.248 693.788 468.079 693.57 464.76C693.237 459.708 700.889 457.868 704.247 460.188L704.537 461.167C703.129 463.229 699.557 461.655 697.234 462.861L696.591 463.757C697.571 466.964 710.452 467.611 703.09 477H694.847Z" fill="black"/>
<path d="M45.0228 477L44.5498 475.581C46.1765 473.166 49.1545 476.215 52.3597 473.285C53.0008 469.272 43.4158 469.3 44.1446 463.82C44.9007 458.138 50.8245 458.166 54.4222 460.985L54.5895 461.635C52.4113 462.115 49.6803 461.901 47.95 462.631C47.1388 463.903 47.2387 463.376 47.3466 464.669C49.0887 467.186 56.3174 467.615 55.4249 472.567C55.12 474.26 54.3053 475.791 53.0996 477H45.0228Z" fill="black"/>
<path d="M243.353 477L243.283 475.394C245.333 473.448 247.235 475.442 249.689 474.431C251.121 472.928 251.315 471.421 249.82 469.927C247.241 469.245 245.09 469.272 243.515 466.719C239.591 460.359 250.591 456.648 253.293 460.847L253.27 461.683C250.894 463.265 246.055 461.148 245.413 464.07C246.877 467.548 259.63 468.515 251.526 477H243.353Z" fill="black"/>
<path d="M567.532 477L567.575 475.414C569.819 473.396 571.334 475.521 573.764 474.399C575.021 473.17 575.255 470.477 573.919 470.128C558.115 466.021 573.277 454.109 577.285 461.028L577.222 461.758C574.327 462.991 572.135 461.08 569.847 463.634C569.685 465.164 569.53 464.609 570.327 465.759C573.098 467.012 576.377 466.556 577.515 469.918C578.344 472.361 577.372 474.994 576.044 477H567.532Z" fill="black"/>
<path d="M357.344 477C355.721 475.593 355.286 475.347 354.65 473.194C352.462 465.787 355.414 454.915 365.172 460.664C365.39 460.791 365.502 460.989 365.641 461.187C363.076 462.373 358.127 461.651 357.306 465.097C356.614 467.996 356.668 474.169 360.526 474.74C362.26 474.998 363.703 474.391 364.975 475.208C364.9 476.187 364.907 476.136 364.422 477H357.344Z" fill="black"/>
<path d="M648.03 474.677C646.817 468.705 645.326 455.759 657.534 460.101C658.014 460.272 658.029 460.835 658.168 461.338C657.292 462.762 652.685 462.282 650.873 462.496C650.302 465.549 649.342 471.318 651.075 473.951C653.402 475.625 656.138 473.824 657.922 474.966C658.085 476.116 658.025 475.775 657.518 477H650.405L648.03 474.677Z" fill="black"/>
<path d="M428.179 477C427.307 474.411 427.073 461.464 428.12 459.589L429.079 459.383C430.998 461.274 430.209 471.211 430.304 474.43C432.362 474.434 435.272 474.149 436.942 474.997C437.386 475.85 437.283 475.993 437.112 477H428.179Z" fill="black"/>
<path d="M227.212 477C227.146 473.205 226.349 462.051 228.529 459.446L229.127 459.609C231.05 463.051 230.179 472.634 230.005 477H227.212Z" fill="black"/>
<path d="M449.225 477C449.157 473.471 448.412 461.77 450.406 459.34C452.801 460.101 451.802 474.217 451.727 477H449.225Z" fill="black"/>
<path d="M551.49 477C551.458 473.824 550.745 461.12 552.91 459.205C554.876 461.311 554.297 471.624 554.186 474.974C554.166 475.648 554.135 476.326 554.095 477H551.49Z" fill="black"/>
<path d="M717.482 477C717.339 472.619 716.725 463.38 718.346 459.486L718.897 459.232C720.832 461.865 720.059 473.253 719.976 477H717.482Z" fill="black"/>
<path d="M266.449 477C266.409 472.777 265.917 463.65 267.292 460.033L267.813 459.819C269.424 462.496 268.839 473.285 268.788 477H266.449Z" fill="black"/>
<path d="M264.966 78.748C268.212 81.2048 272.675 83.6473 276.186 85.9859L310.006 108.301L381.117 155.53C388.063 160.051 394.196 164.317 401.361 168.784C421.792 154.829 443.591 141.18 464.287 127.444L517.079 92.3832C524.117 87.7516 530.238 83.4146 537.561 78.8063C537.704 89.2345 537.454 100.062 537.458 110.547L537.518 204.517C537.435 218.214 537.45 231.912 537.561 245.609C532.019 245.014 523.141 242.681 517.491 241.338C509.704 239.485 502.032 237.854 494.234 236.102C493.369 234.908 493.667 234.578 493.631 232.85L493.679 159.239C472.855 172.307 450.819 187.242 430.332 201.03L412.379 212.991C408.676 215.507 405.128 218.216 401.278 220.501C398.835 219.231 394.919 216.103 392.426 214.482C386.778 210.81 381.162 207.026 375.541 203.312L308.739 159.147C308.93 169.865 308.702 181.247 308.7 192.029C308.793 206.682 308.769 221.337 308.628 235.991C294.652 238.942 278.591 243.336 264.841 245.689L264.966 78.748Z" fill="#021A3C"/>
<path d="M424.873 315.182L480.951 315.145C490.669 315.13 500.601 314.821 510.271 315.549C516.69 316.121 521.298 320.867 526.158 324.136C540.44 333.741 540.614 339.492 540.535 355.266L540.456 374.687C540.468 380.49 540.448 386.885 540.646 392.66C541.058 404.482 540.008 411.968 529.667 419.403C525.647 421.881 517.539 428.887 513.673 429.609C503.444 431.516 487.699 430.759 477.232 430.747L424.69 430.727L424.686 364.025C424.682 348.305 424.361 330.745 424.873 315.182Z" fill="#021A3C"/>
<path d="M452.912 338.723L486.034 338.619C490.075 338.613 500.137 338.363 503.726 339.045C505.716 339.406 507.56 340.326 509.042 341.697C512.048 344.463 512.575 348.503 512.619 352.394C512.726 364.127 512.42 375.844 512.658 387.581C512.73 391.216 512.868 395.081 512.167 398.662C511.663 401.243 510.938 402.139 509.161 404.03C502.857 408.88 491.637 407.674 483.786 407.67L453.027 407.575C452.278 385.935 452.789 360.534 452.912 338.723Z" fill="#FBFBFB"/>
<path d="M394.546 0.593874C395.497 0.534905 396.45 0.512693 397.404 0.527292C410.179 0.623434 436.422 1.47356 449.582 3.35541C497.965 10.2732 558.012 25.3431 594.148 60.0561C604.536 70.0338 604.401 76.4109 604.254 89.1705C602.038 87.6788 598.723 85.498 596.8 83.6852C592.542 79.6531 589.069 75.2519 584.061 72.0524C567.869 61.7067 549.837 53.8118 531.515 48.0902C528.724 47.2199 525.699 46.476 523.027 45.3273L522.67 45.1711C521.032 54.0434 518.641 62.2004 517.25 71.3827L510.573 71.5338C510.295 61.5144 510.184 51.4915 510.244 41.4685C476.269 32.6336 441.398 27.7056 406.309 26.7801C367.715 26.2304 329.218 30.8113 291.831 40.4027C291.689 51.1084 291.793 62.0033 291.805 72.7257L285.421 71.4378C283.88 64.1472 280.16 50.9716 279.358 44.3392C255.46 51.0422 226.836 63.9966 208.572 80.7935C205.444 83.6701 202.194 86.0845 199.451 89.3826C197.974 77.4025 197.574 65.0005 207.131 56.3574C243.334 23.6175 296.006 10.7209 343.144 3.50208C357.61 1.2867 380.104 0.601265 394.546 0.593874Z" fill="#E41C1C"/>
<path d="M291.398 76.3019C304.721 75.4248 318.318 72.9863 332.208 72.0953C366.841 69.861 401.572 69.5025 436.244 71.0212C458.003 71.8316 484.357 73.3848 505.93 76.4775C507.409 76.5009 508.016 76.2579 509.114 76.9458C508.503 78.4771 505.783 79.8633 504.289 80.7888L435.586 125.58C425.452 132.222 411.016 140.987 401.572 148.057C388.833 140.441 374.253 130.359 361.705 122.093C338.401 106.628 314.965 91.364 291.398 76.3019Z" fill="#E41C1C"/>
<path d="M505.93 76.4773C507.409 76.5007 508.015 76.2576 509.114 76.9456C508.503 78.4769 505.783 79.8631 504.288 80.7885L503.777 80.4154C503.801 78.9622 503.654 78.607 503.17 77.2921L503.028 76.9123L503.472 76.5661L502.976 76.8092C503.817 76.517 505.014 76.5253 505.93 76.4773Z" fill="#F4201F"/>
<path d="M598.763 315.223C609.297 314.788 622.175 315.171 632.856 315.272C633.733 318.023 635.255 321.12 636.278 323.896C639.585 332.872 643.645 341.527 647.245 350.356L679.951 430.592C671.303 430.993 659.77 430.731 650.96 430.818C648.541 424.236 645.354 417.761 643.141 411.155L633.285 411.076C618.202 411.009 603.116 411.021 588.034 411.112C584.89 418.126 582.721 423.261 580.358 430.604C571.171 430.921 560.149 430.842 550.982 430.584L598.763 315.223Z" fill="#021A3C"/>
<path d="M615.392 341.628C618.147 344.781 631.842 382.691 634.47 388.74C628.634 389.06 621.858 388.943 615.939 388.956C609.5 388.965 603.065 388.932 596.626 388.857C601.253 378.202 604.869 366.905 609.555 356.242C611.633 351.518 613.818 346.513 615.392 341.628Z" fill="#FBFBFB"/>
<path d="M550.384 77.9731C567.932 87.1317 586.706 99.4025 604.032 107.804C602.256 155.913 598.156 204.63 595.837 252.675C595.666 255.217 595.583 257.845 595.468 260.397C580.334 256.692 565.256 252.753 550.245 248.58C550.935 191.892 549.96 134.721 550.384 77.9731Z" fill="#021A3C"/>
<path d="M251.276 78.5342C252.301 79.9231 251.714 233.845 251.779 248.736C237.849 253.053 221.016 256.568 206.591 260.502L206.25 254.625C205.929 241.091 204.424 224.087 203.576 210.337C201.138 176.303 199.473 142.218 198.584 108.108C216.079 99.092 233.954 88.2502 251.276 78.5342Z" fill="#021A3C"/>
<path d="M167.28 315.187C201.254 315.178 236.131 314.747 270.039 315.286C269.99 323.615 267.528 330.566 265.351 338.522C256.576 338.872 246.964 338.671 238.124 338.649C223.803 338.59 209.482 338.604 195.162 338.692C195.051 346.245 195.067 353.8 195.21 361.352C215.686 361.68 236.347 361.431 256.863 361.618C254.952 367.002 249.392 378.618 246.585 383.672C232.949 383.784 219.312 383.828 205.676 383.803L195.256 383.859C195.029 391.777 195.014 399.7 195.212 407.619L273.708 407.75C270.699 415.462 268.206 422.904 265.309 430.545C252.749 430.941 238.988 430.719 226.347 430.739L167.326 430.723L167.28 315.187Z" fill="#021A3C"/>
<path d="M377.001 315.287C386.871 314.722 400.223 315.169 410.369 315.254C400.251 329.077 389.515 342.346 379.104 355.989C375.674 360.26 362.366 376.78 360.686 380.579C358.847 384.737 359.727 422.686 359.701 430.561C351.152 430.906 340.733 430.743 332.201 430.648L332.216 398.499C332.218 393.147 332.396 386.632 332.011 381.401C327.711 374.902 322.055 368.174 317.415 361.815C306.045 346.236 293.817 331.028 282.78 315.239C293.714 315.096 304.649 315.11 315.582 315.28C325.516 330.043 336.532 343.906 346.365 358.316C352.15 350.941 357.997 341.69 363.591 334.229C368.832 327.239 372.254 322.667 377.001 315.287Z" fill="#021A3C"/>
<path d="M611.549 463.214C613.976 462.881 616.212 464.578 616.545 467C616.882 469.423 615.197 471.663 612.771 472.008C610.34 472.349 608.092 470.656 607.751 468.222C607.414 465.787 609.115 463.543 611.549 463.214Z" fill="#F4201F"/>
<path d="M312.026 463.316C314.433 462.92 316.703 464.557 317.087 466.964C317.471 469.375 315.822 471.639 313.411 472.008C311.017 472.376 308.775 470.743 308.394 468.352C308.013 465.957 309.636 463.709 312.026 463.316Z" fill="#F4201F"/>
</g>
<defs>
<clipPath id="clip0_2_110">
<rect width="812" height="477" fill="white"/>
</clipPath>
</defs>
</svg>
