<svg width="599" height="519" viewBox="0 0 599 519" fill="none" xmlns="http://www.w3.org/2000/svg">
<path d="M299.067 79.7104C302.077 81.8698 356.001 209.405 361.842 223.107C364.343 228.996 366.884 234.867 369.464 240.72C371.105 244.45 373.211 248.869 374.486 252.624C363.685 255.577 356.595 258.539 346.373 262.931C343.694 257.457 342.149 252.961 339.862 247.485L326.551 215.453C317.657 193.896 308.073 172.214 299.512 150.643C299.415 150.406 299.143 150.024 298.991 149.792L298.514 149.97C297.476 151.367 295.829 155.689 294.966 157.58C290.583 167.174 286.806 177.036 282.803 186.8L251.533 262.159C240.935 257.747 235.627 255.723 224.568 252.537C225.699 248.915 227.673 244.597 229.159 241.004L236.846 222.537C244.943 203.184 253.196 183.897 261.606 164.678L286.85 107.089C290.563 98.6864 294.738 87.6926 299.067 79.7104Z" fill="#181D1F"/>
<path d="M429.239 38.3835C429.373 38.3598 430.078 38.3572 430.239 38.3542C430.435 38.9707 430.388 38.9505 430.017 39.4528C429.122 40.6587 427.689 41.7596 426.592 42.8017C424.296 44.9839 422.038 47.2609 420.154 49.8155C413.764 58.4768 410.666 69.3193 409.487 79.8795C407.449 98.1609 409.789 117.109 412.21 135.242C415.372 158.913 424.293 198.396 414.784 220.253C408.282 235.203 398.438 243.308 383.518 249.227C381.632 247.61 381.14 246.586 379.888 244.466C389.991 233.383 394.875 221.063 395.677 206.068C396.039 199.243 394.767 192.305 393.884 185.558C392.632 175.823 391.225 166.109 389.669 156.418C388.721 150.53 387.51 144.612 386.744 138.707C385.405 125.166 384.498 114.639 385.63 101.046C386.613 89.2344 387.867 83.3592 391.968 72.3833C384.635 75.1401 380.836 78.2292 374.919 82.8224C356.37 97.2265 349.198 118.528 351.424 141.494C351.544 142.738 353.068 155.814 353.1 155.692L352.67 155.518C345.738 143.252 340.418 133.751 340.38 119.494C340.345 106.403 343.548 96.2336 350.488 85.1889C363.135 65.0661 383.603 51.3658 405.928 44.101C412.98 41.8451 421.859 40.054 429.239 38.3835Z" fill="#9C0013"/>
<path d="M169.766 38.0759C173.478 38.5575 176.915 39.7254 180.602 40.4041C219.572 47.58 260.861 79.7317 259.014 122.726C258.607 132.198 251.056 148.13 245.676 156.382C246.851 149.192 248.725 141.943 249.043 134.352C249.474 124.062 246.042 110.214 240.978 101.335C234.906 90.6895 219.628 75.6619 207.678 72.6362C215.367 88.7314 215.049 118.956 212.732 136.554C211.059 153.751 207.525 169.522 205.605 186.645C202.859 211.118 203.939 224.704 219.575 244.284C218.534 246.497 217.988 247.353 216.537 249.285C188.445 237.548 180.02 217.699 180.886 188.868C181.076 182.05 181.618 175.247 182.51 168.485C183.201 163.414 184.412 158.089 184.923 153.002C187.321 129.186 192.656 104.797 190.377 80.8381C189.626 72.932 187.665 64.188 184.231 57.1013C182.297 53.112 179.466 49.178 176.835 45.6257C175.548 43.9145 170.002 39.4366 169.766 38.0759Z" fill="#9C0013"/>
<path d="M381.199 371.992C391.64 371.933 403.492 371.211 413.673 372.864C427.121 375.043 433.76 385.71 431.064 398.822C429.75 405.2 424.018 408.898 418.879 412.113C437.343 416.107 441.789 436.533 429.587 450.003C421.549 457.636 406.744 457.197 396.419 457.118C388.827 457.059 381.167 457.343 373.585 456.954C374.606 454.684 377.171 452.03 377.432 450.395C378.043 446.583 377.87 441.138 377.856 437.227L377.847 419.696L377.864 394.811C377.853 384.826 379.049 380.824 373.705 372.121C376.063 371.974 378.806 372.012 381.199 371.992Z" fill="#9C0013"/>
<path d="M392.438 417.903L392.766 417.356C394.43 417.116 396.554 417.268 398.215 417.251C403.734 417.195 411.034 417.356 415.664 420.82C421.961 425.527 423.421 435.662 418.346 441.817C415.269 445.547 411.897 446.501 407.288 447.109C402.178 447.908 396.954 446.779 392.21 447.066L391.552 446.694C390.648 443.982 391.257 426.291 391.438 422.505C391.479 421.63 392.187 419.032 392.438 417.903Z" fill="#FFFFFE"/>
<path d="M392.21 447.066L391.552 446.694C390.648 443.982 391.257 426.291 391.438 422.505C391.479 421.631 392.187 419.033 392.438 417.903C392.485 424.48 392.5 431.057 392.476 437.634C392.473 439.222 392.509 445.635 392.21 447.066Z" fill="#FD1407"/>
<path d="M392.45 381.986C399.075 381.67 408.256 380.374 413.512 385.338C418.308 389.87 418.671 399.212 413.807 403.878C410.125 407.412 407.665 408.108 402.664 408.249C402.011 408.787 393.085 408.857 391.889 407.971C390.137 404.481 391.523 388.232 391.181 383.522C391.128 382.793 391.927 382.334 392.45 381.986Z" fill="#FFFFFE"/>
<path d="M402.664 408.249C402.011 408.787 393.085 408.857 391.889 407.971C390.137 404.481 391.523 388.232 391.181 383.522C391.128 382.793 391.927 382.334 392.45 381.986C392.447 390.549 392.594 399.542 392.433 408.073C395.831 408.135 399.268 408.225 402.664 408.249Z" fill="#FD1407"/>
<path d="M408.124 248.057L408.651 248.266C408.899 252.994 403.307 266.554 401.175 271.054C390.347 294.139 369.263 308.138 345.244 314.727C327.891 319.486 317.104 324.167 304.785 337.695L304.56 337.531C304.019 336.706 304.323 334.544 304.493 333.538C308.579 308.317 323.571 287.448 345.376 274.449C357.996 266.925 370.702 263.104 384.758 259.356C392.401 257.318 401.731 252.737 408.124 248.057Z" fill="#181D1F"/>
<path d="M191.436 247.625C192.268 248.071 193.5 249.044 194.323 249.618C200.652 254.03 208.045 256.886 215.327 259.345C219.558 260.773 224.146 261.784 228.467 263.147C242.643 267.616 254.714 273.802 266.248 283.259C282.773 296.869 293.185 316.511 295.18 337.827C293.943 337.265 288.17 331.268 286.277 329.74C282.187 326.443 279.535 324.881 274.97 322.38C268.684 318.939 263.999 317.737 257.306 315.543C246.334 311.941 236.577 308.331 226.687 302.137C211.243 292.464 200.638 276.755 194.573 259.795C193.266 256.142 192.276 251.42 191.436 247.625Z" fill="#181D1F"/>
<path d="M103.532 372.261C107.989 371.799 117.683 372.006 122.269 372.161C123.704 374.759 127.363 379.812 129.165 382.46C134.287 389.99 139.481 397.477 144.746 404.908C151.451 414.46 157.943 424.992 164.847 434.149C165.633 420.797 164.93 407.023 165.19 393.632C165.367 384.493 165.865 380.028 160.777 372.217C166.29 371.927 173.036 371.989 178.556 372.182C177.25 373.654 174.741 376.333 174.484 378.238C173.698 384.072 173.986 391.742 173.984 397.632L174.029 442.87C174.043 446.951 174.072 452.466 174.108 456.682C173.987 456.828 173.866 456.977 173.745 457.124L172.344 457.194C169.157 457.232 165.969 457.229 162.782 457.185C159.254 453.154 154.171 445.041 150.877 440.205L136.222 418.857C130.131 409.869 124.639 401.444 117.609 393.12C117.521 395.686 117.495 398.407 117.525 400.993C117.714 417.33 117.069 433.801 117.81 450.093C117.888 451.805 120.781 455.637 121.824 457.015C116.22 457.252 109.096 457.077 103.468 456.974C104.715 454.73 106.929 452.759 107.7 450.284C108.334 448.247 108.666 385.286 107.91 380.713C107.35 377.325 105.015 375.476 103.676 372.583C103.627 372.475 103.58 372.366 103.532 372.261Z" fill="#181D1F"/>
<path d="M299.509 1.35669C300.98 2.70345 303.06 8.25651 304.045 10.3463C308.889 20.6657 313.583 31.0531 318.131 41.5051C322.366 50.8658 326.505 60.271 330.541 69.7189C333.118 75.5865 335.654 80.7437 337.865 86.8128C335.607 92.2916 333.445 97.8923 332.591 103.791C332.425 104.948 332.433 106.473 331.796 107.427L331.243 107.422C329.529 105.881 324.882 94.0229 323.209 91.0353C315.411 77.1157 308.468 62.151 299.702 48.8053L299.521 48.5917C296.59 48.843 269.154 106.275 268.392 106.74C268.035 106.324 263.665 90.4888 261.308 87.0969C261.264 87.0331 261.217 86.9717 261.171 86.9091C264.712 79.4006 267.989 71.0556 271.325 63.3999L287.386 27.4259C289.92 21.6904 292.163 16.0756 295.008 10.4204C296.599 7.25546 297.541 4.44247 299.509 1.35669Z" fill="#9C0013"/>
<path d="M197.663 372.252C202.309 371.776 215.114 372.012 220.008 372.258C215.067 377.583 216.036 382.913 215.838 389.607C215.595 397.81 216.286 406.131 215.869 414.308C217.588 412.813 219.011 411.221 220.45 409.454C228.462 399.61 236.778 389.979 244.651 380.032C245.439 379.034 246.068 377.58 246.568 376.41C246.103 374.923 245.79 373.674 245.427 372.168C250.941 371.977 261.186 371.822 266.34 372.425C264.248 374.227 261.217 375.667 259.104 377.741C255.216 381.562 251.716 385.862 248.193 390.019C243.487 395.631 238.688 401.16 233.796 406.611C236.035 409.185 238.393 413.164 240.378 416.095L255.653 438.941C258.399 443.078 261.372 447.879 264.559 451.624C265.884 453.18 268.443 455.313 270.067 456.86C264.077 457.361 252.395 457.121 246.116 457.2C246.164 455.687 246.349 454.304 246.529 452.803C244.199 448.116 240.211 442.332 237.243 437.85C232.886 431.323 228.583 424.758 224.334 418.161C222.468 419.881 216.663 425.969 216.466 428.509C215.986 434.679 215.713 444.629 216.676 450.764C216.881 452.068 219.494 455.79 220.282 456.969C214 457.416 204.02 457.133 197.576 456.945C198.725 455.181 200.138 453.285 200.723 451.235C201.463 448.642 201.555 384.218 200.889 379.204C200.538 376.559 198.989 374.894 197.85 372.63L197.663 372.252Z" fill="#181D1F"/>
<path d="M317.505 371.928C321.793 371.658 321.763 374.59 323.372 378.106C334.489 402.398 344.317 427.291 355.15 451.688C355.949 453.487 358.642 455.526 360.216 456.787C353.907 457.296 341.886 457.176 335.481 456.957C336.686 454.754 337.177 453.914 337.841 451.504C337.227 447.934 333.82 439.807 332.407 435.916L319.324 435.834C312.98 435.82 305.335 435.755 299.038 436.159C296.417 439.892 293.621 447.554 292.767 452.121C293.329 453.762 294.221 455.333 295.025 456.878C292.245 457.039 279.856 457.165 277.636 456.764C277.203 455.243 281.473 452.367 282.21 450.752C283.585 447.738 284.843 444.664 286.117 441.603L306.514 392.184C309.12 385.997 312.211 378.838 315.227 372.741C315.592 372.004 316.537 372.083 317.505 371.928Z" fill="#181D1F"/>
<path d="M314.969 394.82C316.671 396.889 327.069 423.201 329.005 427.713C324.685 427.871 320.366 427.961 316.043 427.979C311.392 427.994 306.745 427.926 302.097 427.774C303.255 423.079 305.51 417.988 307.315 413.442C309.746 407.307 312.091 400.736 314.969 394.82Z" fill="#FFFFFE"/>
<path d="M42.9737 371.582C43.6283 371.614 44.8681 371.594 45.3261 372.162C46.6906 373.99 47.8552 376.167 48.7654 378.27C55.9742 394.911 63.3034 411.534 70.2124 428.301C73.4832 436.238 76.5274 444.175 80.2556 451.884C81.0947 453.619 83.3275 455.605 84.713 456.881C80.9187 457.015 63.49 457.495 60.87 456.363L60.8449 455.983C62.9688 454.739 62.7018 453.888 63.2719 451.553C62.1107 447.048 59.2418 440.386 57.441 435.925L45.2153 435.939C38.1826 436.021 31.1496 436.033 24.1166 435.975C21.4711 441.22 19.6955 445.685 18.2686 451.43L20.2142 456.977C16.9385 457.021 6.00819 457.352 3.36104 456.811L3.15039 456.451C4.21189 454.189 6.8493 452.858 7.84304 450.594C10.4054 444.757 12.7294 438.798 15.1546 432.909L25.3932 408.357C30.0721 396.862 34.8653 385.198 40.2066 373.967C41.0296 372.238 41.2782 372.173 42.9737 371.582Z" fill="#181D1F"/>
<path d="M40.1197 394.829C41.6459 395.929 52.9143 424.424 54.071 427.757C49.8742 427.856 45.5812 427.856 41.3753 427.9C36.7088 427.918 31.9528 427.994 27.2979 427.78C30.3681 418 36.2847 404.77 40.1197 394.829Z" fill="#FFFFFE"/>
<path d="M459.142 371.989C474.781 371.778 490.873 371.992 506.559 371.98C506.617 374.385 508.15 386.599 507.816 387.615C506.439 387.436 504.306 385.318 502.879 384.71C493.681 380.786 480.613 381.933 470.654 382.082C470.578 390.739 470.583 399.399 470.665 408.059C471.361 408.246 472.069 408.395 472.783 408.503C478.934 409.393 487.176 408.96 493.327 407.956C494.824 407.713 497 404.264 498.995 404.706C499.255 405.461 499.358 421.616 499.226 422.207C497.284 421.736 493.374 419.138 491.967 418.834C486.082 417.564 476.55 417.944 470.63 418.354C470.566 423.228 470.642 428.239 470.657 433.122L470.671 446.905C480.329 447.206 495.12 447.961 503.859 444.737C505.532 444.12 508.088 442.124 510.326 441.103L510.7 440.936C509.621 446.466 508.515 451.366 507.954 457.018C496.237 457.165 484.409 457.162 472.695 457.062C469.68 457.036 454.754 457.557 452.71 456.852C453.234 454.927 455.053 453.043 455.875 451.106C456.392 449.88 456.413 389.788 456.129 383.829C455.986 380.854 455.749 377.992 454.693 375.187L454.518 374.73C453.535 374.081 452.669 373.727 452.821 372.478C454.023 371.676 457.492 371.963 459.142 371.989Z" fill="#9C0013"/>
<path d="M524.731 371.974C546.313 371.998 568.322 371.775 589.857 372.009C590.363 375.947 591.173 384.037 592.048 387.6C581.852 381.134 575.707 381.837 564.002 382.041C563.829 397.401 563.774 412.76 563.838 428.122C563.835 435.141 563.566 443.098 564.224 450.056C564.42 452.112 566.269 454.836 567.646 456.451L567.933 456.79C561.139 457.355 551.99 457.428 545.204 456.904C547.509 453.792 548.486 452.519 549.419 448.771C549.243 442.37 548.527 435.662 549.018 429.275C550.206 413.86 547.679 397.231 549.085 381.959C541.636 382.109 533.938 381.462 527.006 384.765C525.114 385.669 523.865 386.649 522.151 387.629C522.514 382.112 523.871 377.36 524.731 371.974Z" fill="#9C0013"/>
<path d="M549.085 381.959L549.94 382.161C550.913 384.06 550.062 411.602 550.045 416.312C550.027 421.511 550.855 445.655 549.419 448.771C549.243 442.37 548.527 435.662 549.018 429.275C550.206 413.86 547.679 397.231 549.085 381.959Z" fill="#FF666B"/>
<path d="M299.108 226.322C302.688 228.453 315.461 248.772 319.737 253.769C317.075 255.822 313.58 261.431 311.313 264.486L299.79 279.809C299.462 280.137 299.679 279.991 299.094 280.149C297.497 278.306 295.865 275.725 294.344 273.729C289.561 267.446 284.814 259.64 279.86 253.615C281.508 250.188 286.1 244.158 288.556 240.816C291.787 236.417 295.701 230.396 299.108 226.322Z" fill="#D45E00"/>
<path d="M351.319 492.687C354.957 492.45 358.973 493.334 360.275 497.04C362.427 503.164 361.927 509.977 355.355 512.607C351.775 513.149 347.923 512.21 346.651 508.62C344.539 502.649 345.104 495.504 351.319 492.687Z" fill="#181D1F"/>
<path d="M351.904 493.855C359.251 493.249 360.997 501.429 359.058 506.961C358.242 509.287 357.209 509.995 355.074 510.981C354.211 511.072 352.652 511.247 351.88 511.06C345.943 509.641 346.019 499.761 349.257 495.914C349.965 495.074 350.997 494.431 351.904 493.855Z" fill="#FFFFFE"/>
<path d="M60.378 492.822C66.685 492.447 74.7393 493.027 70.2255 501.669C68.9655 504.08 75.145 506.002 70.5092 511.221C67.2594 513.073 62.7818 512.546 59.1062 512.344C59.158 509.43 58.8477 494.665 59.6274 493.006L60.378 492.822Z" fill="#181D1F"/>
<path d="M63.8774 503.325C66.5556 503.24 69.6375 503.292 70.6147 506.505C70.872 507.371 70.7331 508.304 70.2353 509.056C69.4673 510.229 68.6635 510.463 67.3825 510.756C65.2008 510.852 62.7586 510.802 60.5557 510.808L60.7133 503.57L63.8774 503.325Z" fill="#FFFFFE"/>
<path d="M61.7194 494.267C62.3634 494.194 62.9762 494.141 63.6196 494.1C68.0001 493.822 72.4467 497.046 68.027 501.054C65.6863 501.56 63.1183 501.28 60.7483 501.078C60.6229 498.995 60.0195 495.601 61.7194 494.267Z" fill="#FFFFFE"/>
<path d="M261.222 492.5C263.403 493.237 267.138 506.198 268.484 508.731C268.804 509.331 269.491 511.37 269.48 512.049L268.971 512.414C266.873 511.516 267.352 506.736 262.804 506.715L262.428 506.718L257.611 506.815C256.791 508.76 255.958 512.189 253.697 512.154L253.384 511.739C253.726 510.045 255.37 506.721 256.068 504.937C257.679 500.812 259.027 496.33 261.222 492.5Z" fill="#181D1F"/>
<path d="M261.436 496.034C262.576 496.73 264.573 503.658 265.173 505.411L262.428 505.475L257.947 505.501C259.319 501.61 259.18 500.136 261.436 496.034Z" fill="#FFFFFE"/>
<path d="M90.2437 492.26C91.5859 493.062 98.0524 510.369 97.3247 512.622C96.0638 511.861 94.7473 508.269 94.11 506.745L90.7158 506.783L86.1633 507.137C85.6266 508.319 84.2537 511.932 82.9803 512.128C82.5585 508.983 88.5292 495.364 90.2437 492.26Z" fill="#181D1F"/>
<path d="M90.4708 495.791C91.1748 497.008 92.8919 503.6 93.5193 505.519L89.9054 505.507L86.4316 505.571C87.9607 502.242 88.6896 499.311 90.4708 495.791Z" fill="#FFFFFE"/>
<path d="M196.24 494.94C197.296 495.487 201.867 501.005 202.843 502.178C201.463 504.056 198.023 507.611 196.321 509.46C194.564 508.202 190.874 503.79 189.257 501.944C191.82 499.603 192.991 497.28 196.24 494.94Z" fill="#9C0013"/>
<path d="M526.36 492.447C528.284 493.138 535.98 506.373 538.062 509.287C538.091 506.499 537.866 494.232 539.015 492.833L539.44 492.863C540.443 494.595 539.937 508.711 539.919 511.952L539.472 512.315L538.667 512.198C535.204 509.831 530.934 501.136 528.118 497.21L527.831 496.815C527.618 499.393 528.036 511.385 527.123 512.294L526.421 512.271L525.983 511.8C525.942 505.68 526.059 498.547 526.36 492.447Z" fill="#181D1F"/>
<path d="M393.304 494.908C394.618 495.905 398.905 500.583 400.163 501.923C398.581 503.974 395.252 507.105 393.313 509.17C393.05 508.962 393.114 509.035 392.898 508.769C390.856 506.247 388.747 504.275 386.343 502.134C387.54 500.627 391.552 496.844 393.304 494.908Z" fill="#9C0013"/>
<path d="M431.713 492.737C433.421 492.556 434.532 492.57 436.196 493.056C438.007 493.585 440.274 495.876 439.519 497.851C438.563 497.506 437.056 495.323 436.217 494.759C429.926 490.517 425.647 500.616 427.378 505.735C428.413 508.799 428.688 509.416 431.189 511.01C434.076 511.177 435.143 511.11 437.896 510.264C438.291 508.193 438.334 506.531 438.264 504.445C436.939 503.699 435.456 504.852 433.827 504.293L433.713 503.644L434.076 503.237C435.764 502.576 438.405 502.854 440.186 503.032C440.554 505.747 440.317 508.108 440.078 510.805C437.027 512.315 434.105 513.629 430.584 512.368C428.612 511.657 427.007 510.185 426.129 508.278C424.872 505.601 424.796 500.993 425.848 498.217C427.068 494.996 428.843 494.01 431.713 492.737Z" fill="#181D1F"/>
<path d="M503.005 512.309L502.514 512.204L502.18 511.666C502.002 509.091 501.806 494.323 502.713 492.845L503.593 492.64L503.385 493.369C503.889 493.752 503.845 493.74 504.465 493.846C505.474 493.866 506.34 493.828 507.325 494.068C505.755 494.141 505.933 493.869 505.038 494.685C504.394 496.388 504.795 498.714 504.81 500.695C507.161 500.753 510.961 500.25 512.552 501.432C512.961 502.403 512.917 501.92 512.716 502.927C511.291 504.261 506.992 503.784 504.716 503.772C504.745 505.703 504.892 508.992 504.637 510.805L508.735 510.887C510.095 510.879 513.379 510.703 514.348 511.701C513.017 513.134 505.047 512.391 503.005 512.309Z" fill="#26292C"/>
<path d="M504.464 493.846C505.473 493.866 506.339 493.828 507.325 494.068C505.754 494.141 505.933 493.869 505.038 494.685C504.394 496.388 504.795 498.714 504.809 500.695C507.161 500.753 510.96 500.25 512.551 501.432C512.961 502.403 512.917 501.92 512.715 502.927C511.291 504.261 506.991 503.784 504.716 503.772C504.745 505.703 504.891 508.991 504.637 510.805C504.122 507.049 504.57 498.108 504.464 493.846Z" fill="#666466"/>
<path d="M508.735 510.887C510.095 510.879 513.379 510.703 514.347 511.701C513.017 513.134 505.047 512.391 503.005 512.309L502.841 511.806C504.163 510.545 506.301 511.63 508.735 510.887Z" fill="#181D1F"/>
<path d="M155.518 492.746C158.222 492.497 161.382 492.93 162.986 495.417C163.182 496.426 163.199 496.371 162.787 497.304C161.491 497.286 160.288 493.945 158.103 493.699C155.695 493.427 153.036 495.744 152.738 498.018C153.59 501.944 163.407 501.78 164.012 506.999C164.469 510.934 161.406 512.362 158.132 512.941C155.625 512.842 149.386 511.423 150.545 507.883C151.432 507.69 153.365 510.033 154.853 510.571C157.377 511.481 161.176 511.712 161.963 508.412C163.301 502.798 152.432 503.69 150.823 499.548C149.545 496.259 152.953 493.846 155.518 492.746Z" fill="#181D1F"/>
<path d="M464.406 492.134L465.216 492.503C466.073 494.247 465.62 507.397 465.073 509.931C463.426 511.654 462.174 512.707 459.688 512.842C450.367 513.336 452.216 502.819 452.385 496.546C452.379 495.437 452.292 494.445 452.61 493.395C453.365 492.693 452.935 492.874 453.921 492.784C456.518 496.022 450.072 513.342 460.528 511.066C462.394 510.659 462.797 509.972 463.821 508.538C464.234 503.854 463.681 495.838 464.406 492.134Z" fill="#181D1F"/>
<path d="M234.048 492.737C236.677 492.427 238.469 492.728 240.75 494.045C241.967 494.747 243.572 496.64 242.616 498.015C234.079 490.218 230.043 494.282 230.498 504.825C230.715 509.846 233.236 511.487 238.053 510.995C239.92 510.018 241.729 507.502 243.715 507.485C243.66 508.801 241.059 511.411 240.021 511.888C230.42 516.308 226.098 505.501 228.97 497.939C230.12 494.908 231.519 493.954 234.048 492.737Z" fill="#181D1F"/>
<path d="M286.056 492.477C288.325 492.632 292.333 494.355 292.554 496.783L291.934 496.9C289.623 496.297 288.758 493.36 285.973 493.776C284.493 493.951 281.334 496.306 281.956 498.102C283.496 502.541 296.192 502.769 292.729 509.448C291.822 511.2 289.002 512.54 287.163 512.991C285.273 512.885 283.756 512.783 282.161 511.61C281.193 510.899 279.413 509.495 280.271 508.202C282.115 508.418 283.027 511.098 285.459 511.326C287.979 511.563 291.125 510.258 291.484 507.546C289.928 503.205 281.469 503.687 280.479 498.538C279.748 494.735 282.896 493.018 286.056 492.477Z" fill="#181D1F"/>
<path d="M321.293 496.294C321.138 500.715 321.389 505.059 321.395 509.468C321.395 510.703 321.135 511.654 320.234 512.47C319.945 512.277 319.676 512.198 319.699 511.929C319.98 508.933 319.085 494.527 320.263 492.775C321.79 492.889 329.371 506.429 331.53 508.79L331.702 509.407C332.17 508.769 332.1 508.778 332.39 508.017C332.644 508.681 332.583 509.044 332.568 509.746L333.01 509.749C333.004 508.936 332.834 508.079 333.252 507.57C333.571 509.296 333.308 510.747 333.516 512.347C332.881 512.353 332.278 512.356 331.658 512.21C330.401 511.914 322.571 498.354 321.293 496.294Z" fill="#181D1F"/>
<path d="M476.971 492.266C477.047 492.286 477.129 492.301 477.202 492.327C479.147 493.006 482.99 507.064 484.184 509.814C485.874 505.402 488.471 495.273 491.036 492.579L491.446 492.716C491.449 493.974 491.159 494.729 490.835 495.932C489.94 498.351 485.86 512.119 484.21 512.643C482.046 511.399 476.623 494.577 476.971 492.266Z" fill="#181D1F"/>
<path d="M121.047 500.706C121.038 498.398 120.213 493.006 122.963 492.535C123.521 492.983 123.745 493.267 123.706 494.182C123.536 498.278 124.266 508.202 123.67 511.774C122.914 512.42 123.358 512.189 122.205 512.283C121.706 512.043 121.082 511.879 121.063 511.25C120.99 508.907 121.16 506.139 121.044 503.834L121.047 500.706Z" fill="#666466"/>
<path d="M304.785 492.559C305.642 492.623 305.703 492.6 306.549 492.889C306.774 493.31 306.844 510.832 306.683 512.491C305.812 512.4 305.633 512.365 304.788 512.131C304.338 511.361 304.759 494.601 304.785 492.559Z" fill="#181D1F"/>
<path d="M331.529 508.79L331.532 508.523C331.521 505.256 329.661 493.626 333.223 492.643L333.606 492.953C333.738 495.949 333.995 510.068 333.515 512.347C333.308 510.747 333.571 509.296 333.252 507.57C332.834 508.079 333.004 508.936 333.009 509.749L332.568 509.746C332.582 509.044 332.644 508.681 332.389 508.017C332.1 508.778 332.17 508.769 331.702 509.407L331.529 508.79Z" fill="#353436"/>
<path d="M110.875 496.139C111.041 497.863 111.058 498.808 111.018 500.54C114.288 500.589 117.798 500.58 121.047 500.706L121.044 503.834C117.589 503.86 114.333 503.904 110.884 504.079C110.408 502.906 110.79 497.789 110.875 496.139Z" fill="#666466"/>
<path d="M136.6 492.471C137.269 492.523 137.408 492.582 138.061 492.772C138.459 493.816 138.423 511.151 138.138 512.467L136.742 512.216C136.611 512.06 136.481 511.908 136.351 511.756C136.515 506.06 136.555 497.848 136.6 492.471Z" fill="#181D1F"/>
<path d="M110.884 504.08C110.873 506.048 111.416 511.078 110.174 512.324L109.792 512.204C109.107 510.627 109.265 494.296 110.003 492.559L110.368 492.722C111.039 493.916 110.886 494.756 110.874 496.14C110.79 497.79 110.407 502.906 110.884 504.08Z" fill="#181D1F"/>
<path d="M503.593 492.64C506.249 492.635 511.911 492.406 514.254 493.252L514.219 493.454L513.938 493.565L513.83 493.155L513.654 493.656C511.367 494.223 509.65 494.1 507.325 494.068C506.339 493.828 505.474 493.866 504.465 493.846C503.844 493.74 503.888 493.752 503.385 493.369L503.593 492.64Z" fill="#181D1F"/>
</svg>
