<svg width="933" height="257" viewBox="0 0 933 257" fill="none" xmlns="http://www.w3.org/2000/svg">
<path d="M831.532 103.533L845.818 103.58C844.698 118.76 841.654 134.725 841.454 149.89C842.019 160.283 855.094 161.475 861.148 155.483C869.171 147.543 868.433 134.312 869.562 123.817C870.25 117.434 871.266 110.056 871.599 103.822C877.845 103.559 884.095 103.448 890.345 103.49C889.922 111.872 888.751 121.442 887.872 129.858C886.327 144.896 884.623 159.916 882.756 174.916C876.979 174.968 871.202 174.975 865.426 174.937L865.749 166.211C853.977 183.078 825.331 179.504 822.398 157.445C820.129 140.401 827.345 121.326 826.325 104.673L826.817 103.865C828.056 103.278 830.092 103.496 831.532 103.533Z" fill="#FDFDFD"/>
<path d="M843.153 74.5618C846.853 73.4062 848.985 73.491 852.779 74.7928C855.663 78.0368 856.333 79.3363 857.563 83.5076C856.665 87.5763 855.581 90.7054 851.8 93.1382C849.527 94.6219 846.748 95.1204 844.096 94.5194C841.645 93.9821 839.509 92.4743 838.183 90.3395C836.27 87.2528 836.429 84.0699 837.149 80.615C838.716 77.4503 840.21 76.544 843.153 74.5618Z" fill="#FDFDFD"/>
<path d="M121.817 75.502C134.565 79.1104 133.787 89.4358 124.499 96.9785C125.236 121.431 135.045 152.365 163.579 156.4C174.318 157.919 184.562 155.312 193.323 148.812C209.72 136.646 213.62 116.04 216.135 96.9492C213.367 94.8732 211.114 93.1877 209.741 89.9023C207.566 84.6999 209.947 79.343 215.181 77.2109C217.7 76.1593 220.536 76.1687 223.049 77.2354C231.403 80.8804 227.519 90.4873 224.851 96.3535C228.029 108.047 230.803 132.547 217.313 138.812C215.227 139.781 209.888 141.979 209.976 144.127C212.103 144.716 216.579 142.009 218.619 141.081C232.118 134.947 240.238 123.892 249.058 112.51C247.104 108.95 245.907 105.281 247.587 101.31C248.532 99.0812 250.339 97.3306 252.596 96.457C254.991 95.5334 257.656 95.595 260.007 96.6279C264.774 98.7176 266.29 104.245 264.21 108.89C262.56 112.574 258.551 114.281 254.96 115.595C254.93 116.633 254.871 117.669 254.782 118.704C253.58 132.095 240.792 148.359 230.071 155.197C204.936 171.23 201.18 179.032 198.586 208.969C202.953 206.467 208.796 204.416 213.426 201.691C238.246 187.085 248.21 170.443 255.796 143.805C260.249 142.667 263.175 141.511 266.872 138.704C265.609 134.805 264.763 131.637 266.47 127.594C267.278 125.635 268.861 124.097 270.842 123.344C273.294 122.39 276.176 122.366 278.585 123.471C280.763 124.482 282.451 126.317 283.277 128.572C286.012 136.156 277.557 140.183 271.883 142.14C269.749 159.68 259.403 177.91 247.527 190.747C228.691 210.873 202.667 222.737 175.124 223.754C155.383 224.482 135.826 219.733 118.616 210.034C115.666 208.39 109.933 204.908 107.454 202.613L107.452 202.612C107.453 202.613 107.454 202.614 107.454 202.615C104.081 200.659 100.973 197.458 98.3037 194.656H98.3057L98.3037 194.654C100.731 195.421 104.634 196.219 107.223 196.816C120.356 198.724 120.519 198.919 132.187 204.466C139.958 208.23 148.303 210.672 156.878 211.692C157.639 211.531 158.65 211.022 159.387 210.688C153.887 209.507 144.645 207.917 140.061 204.812C138.491 188.93 135.209 174.191 121.634 164.443C103.935 151.735 85.6143 139.36 84.2881 115.354C71.1578 112.021 70.7333 97.8291 80.7822 95.8955C83.3562 95.3779 86.031 95.9286 88.1904 97.4219C93.5609 101.119 93.0811 107.365 89.6143 112.238C98.1848 124.222 105.741 134.106 119.214 140.887C121.163 141.868 125.835 145.562 127.743 143.772C126.521 138.413 113.783 140.021 112.582 123.415C111.634 110.304 112.249 108.501 115.66 95.3857C109.3 86.5129 110.45 78.4356 121.817 75.502Z" fill="#F3A92E"/>
<path d="M628.713 71.2747C638.453 71.0906 647.264 72.1856 655.528 77.722C665.783 84.5949 668.439 92.2721 670.748 103.554C663.842 104.604 656.958 105.781 650.098 107.087C645.929 90.3952 631.529 86.9831 616.796 93.594C599.726 101.254 592.423 128.687 600.614 144.756C603.284 150.104 607.994 154.151 613.684 155.98C629.328 161.052 643.861 153.36 648.899 137.675C640.312 137.788 631.378 137.625 622.768 137.59C623.424 132.206 623.834 125.835 624.322 120.363L634.832 120.313L669.45 120.34C668.566 136.474 665.623 158.698 663.605 174.965L648.148 175.002C647.943 171.676 647.988 167.846 647.956 164.473C639.651 172.012 633.479 175.912 622.026 176.632C571.918 179.783 564.542 118.897 591.799 88.4262C601.771 77.2823 613.885 72.1386 628.713 71.2747Z" fill="#FDFDFD"/>
<path fill-rule="evenodd" clip-rule="evenodd" d="M359.757 72.3906C361.251 84.4372 367.956 107.814 370.998 120.05C375.52 138.235 379.47 157.026 383.957 175.071C376.762 175.026 369.568 175.018 362.373 175.046C360.97 168.34 359.607 161.627 358.283 154.905C352.109 154.628 344.684 154.8 338.414 154.799L320.024 154.795C317.706 158.476 312.917 170.457 310.966 175.095L289.197 175.068C291.023 169.993 293.746 164.549 295.986 159.572L308.928 130.951C317.049 112.911 326.613 89.8159 335.25 72.3613L359.757 72.3906ZM344.241 96.9121C339.437 109.663 332.215 123.816 327.914 136.28L337.916 136.341L354.255 136.477C353.25 132.343 345.217 97.6125 344.241 96.9121Z" fill="#F2A82C"/>
<path d="M538.466 101.768C551.96 100.478 564.274 107.299 565.413 121.058C566.83 138.108 561.805 157.784 561.144 175.045C554.648 175.077 548.147 175.059 541.65 174.991C542.256 165.024 543.874 155.095 544.762 145.154C545.555 136.326 550.115 120.594 536.853 119.388C531.532 118.904 528.334 120.001 524.248 123.321C518.899 129.519 518.94 139.344 518.129 147.218C517.227 156.577 516.212 165.925 515.086 175.259C509.164 174.915 502.007 175.011 495.984 174.964C497.688 152.174 501.023 126.394 503.501 103.361L521.309 103.428C521.378 106.204 521.259 109.182 521.195 111.974C525.856 105.989 530.972 102.917 538.466 101.768Z" fill="#F3A92E"/>
<path d="M787.21 102.151C802.499 100.8 813.068 106.374 815.177 123.033C816.102 130.351 814.526 138.658 813.683 146.027L810.357 174.841C803.975 174.955 797.592 174.968 791.21 174.882C791.506 164.502 798.913 130 793.934 123.307C792.235 121.024 788.777 119.656 786.044 119.263C781.743 118.644 777.985 120.519 774.632 122.99C769.352 129.186 769.256 139.088 768.313 146.935C767.188 156.304 766.29 165.625 765.042 174.995L746.09 174.994C747.621 152.481 751.525 126.615 754.054 103.806C759.83 103.682 766.081 103.805 771.898 103.81C771.721 107.209 771.379 109.012 770.714 112.346C776.153 106.583 779.265 103.933 787.21 102.151Z" fill="#FDFDFD"/>
<path d="M687.14 103.677L699.354 103.533C697.773 116.293 696.83 129.273 695.354 142.057C694.456 149.808 694.57 158.195 704.406 158.994C708.032 159.293 711.627 158.122 714.383 155.745C721.599 149.541 721.69 137.519 722.61 128.702C723.535 120.396 724.337 112.078 725.011 103.747L743.822 103.592C743.079 113.149 741.817 123.509 740.788 133.087C740.528 134.735 740.327 136.55 740.182 138.22C739.088 150.374 736.993 162.83 736.469 174.991C730.537 175.078 724.378 174.945 718.424 174.89C718.433 172.279 718.784 168.7 718.98 166.01C706.953 183.507 676.712 179.123 675.673 155.787C675.259 146.495 676.603 139.032 677.787 129.848C678.903 121.16 679.459 112.432 680.735 103.766L687.14 103.677Z" fill="#FDFDFD"/>
<path d="M451.28 81.1445C451.619 81.1691 451.859 81.3797 452.178 81.5724C452.587 83.9943 450.77 100.053 450.442 103.336L464.878 103.381C464.523 108.661 463.857 114.523 463.388 119.862L448.379 119.866C447.363 126.752 446.752 134.084 446.085 141.031C444.684 155.614 443.085 160.503 459.306 157.361C458.741 163.058 458.518 168.783 458.641 174.506C454.587 175.367 450.471 175.9 446.332 176.101C445.033 176.078 443.735 176.012 442.439 175.902C421.743 174.013 425.841 153.732 427.275 139.246C427.913 132.796 428.529 126.295 429.162 119.846C425.885 119.838 422.454 119.704 419.166 119.625C419.936 114.623 420.347 108.725 421.068 103.495L431.254 103.288C431.696 97.6609 432.583 91.595 433.299 85.9628C439.066 84.1037 445.377 82.6332 451.28 81.1445Z" fill="#F3A92E"/>
<path d="M398.459 72.0254L418.341 72.0983C417.793 77.8972 417.054 83.672 416.338 89.4522C412.821 117.822 410.937 146.862 407.015 175.141L387.741 175.048C389.163 166.234 389.993 154.885 391.004 145.732C393.786 121.194 396.271 96.6236 398.459 72.0254Z" fill="#F3A92E"/>
<path d="M472.905 103.423L492.536 103.359C490.545 127.334 486.864 151.373 485.087 175.187C478.86 174.987 472.231 175.044 465.972 175.001C467.206 161.351 468.546 147.71 469.994 134.081C471.042 124.385 472.564 112.996 472.905 103.423Z" fill="#F3A92E"/>
<path d="M165.279 111.467C172.349 109.998 179.662 112.444 184.427 117.872C189.191 123.299 190.669 130.87 188.298 137.692C185.926 144.513 180.071 149.533 172.968 150.834C162.166 152.811 151.783 145.73 149.678 134.95C147.572 124.17 154.527 113.701 165.279 111.467Z" fill="#F3A92E"/>
<path d="M61.5855 122.199C72.3583 121.705 73.5915 129.939 71.0891 138.344C75.6457 142.02 78.9881 142.272 83.9588 144.088C85.3738 146.474 87.3118 154.405 88.074 156.505C94.2993 173.656 103.191 182.688 115.669 195.598L108.987 194.854C83.9825 191.657 70.2973 164.585 66.0204 142.289C59.5573 140.426 51.8045 136.399 54.7456 127.493C55.6026 124.897 59.0949 123.085 61.5855 122.199Z" fill="#F3A92E"/>
<path d="M177.007 46.2617C178.411 47.0054 181.719 56.6456 182.538 58.7996L198.51 59.1714C194.198 62.4249 189.99 65.8147 185.893 69.3343C187.299 73.6732 188.465 78.5786 189.617 83.0278C185.319 80.4177 181.415 77.998 177.233 75.1701C173.124 77.9999 168.849 80.6441 164.673 83.5263C166.241 78.5385 167.36 74.179 168.605 69.1279C165 65.8119 160.232 62.4755 156.288 59.1158C161.078 58.7043 167.726 58.765 172.655 58.6629C173.675 55.0325 175.688 49.9194 177.007 46.2617Z" fill="#F3A92E"/>
<path d="M700.998 73.8965C705.444 74.1498 709.294 76.2869 710.633 80.7548C711.412 83.3904 711.084 86.2279 709.736 88.6211C707.69 92.3185 704.911 93.8058 701.025 94.9135C696.251 94.6506 691.595 92.3166 690.434 87.3256C689.823 84.6504 690.315 81.8421 691.805 79.5368C694.078 75.9976 697.071 74.7317 700.998 73.8965Z" fill="#FDFDFD"/>
<path d="M727.576 74.3765C732.236 73.7841 736.838 74.864 738.888 79.562C739.94 82.0227 739.967 84.8009 738.965 87.283C737.366 91.2906 734.824 92.8586 731.084 94.4785C717.973 96.3604 713.613 80.4356 727.576 74.3765Z" fill="#FDFDFD"/>
<path d="M883.298 90.3588C882.642 90.978 881.945 91.5508 881.211 92.0739C872.974 97.8929 863.394 91.6561 864.87 83.7378C867.171 71.3991 889.525 69.319 884.965 87.9706L883.298 90.3588Z" fill="#FDFDFD"/>
<path d="M165.613 22.709C173.051 21.8649 181.724 22.1025 189.321 22.6572L190.826 22.7715L191.855 22.8594C196.964 23.3521 201.553 24.6306 206.567 25.957H206.568C208.319 26.5585 210.168 27.1616 211.879 27.8438C215.366 28.5991 220.919 31.3364 224.217 32.918L223.019 33.8115C221.35 32.6675 212.509 29.7646 210.109 28.9365L205.53 27.6172C199.798 26.4086 193.985 25.6149 188.138 25.2432L188.136 25.2441C171.299 24.0637 148.908 31.4882 134.707 39.9941C114.037 52.3747 97.5565 72.3374 91.2168 95.6299C85.4687 91.395 83.4681 91.0253 76.7695 93.3643C88.5878 54.9506 126.139 27.1887 165.613 22.709ZM225.847 33.6865L226.061 34.4355C224.704 35.0588 224.206 34.7485 223.02 33.8115L224.217 32.918L225.847 33.6865ZM189.485 24.5645C189.449 24.5948 189.411 24.6244 189.37 24.6533C189.411 24.6244 189.449 24.5948 189.485 24.5645Z" fill="#F3A92E"/>
<path d="M302.569 226.51L305.113 210.498H298.633L299.089 207.633H315.476L315.02 210.498H308.541L305.997 226.51H302.569ZM330.018 226.778C328.804 226.778 327.715 226.608 326.751 226.269C325.805 225.912 325.01 225.385 324.368 224.689C323.743 223.975 323.306 223.091 323.056 222.038C322.824 220.967 322.824 219.718 323.056 218.289L324.743 207.633H328.17L326.456 218.53C326.189 220.262 326.367 221.583 326.992 222.493C327.634 223.386 328.723 223.832 330.258 223.832C331.722 223.832 332.874 223.457 333.713 222.708C334.552 221.94 335.105 220.735 335.373 219.093L337.194 207.633H340.594L338.8 219.039C338.532 220.717 338.05 222.136 337.354 223.297C336.658 224.439 335.703 225.305 334.489 225.894C333.293 226.483 331.803 226.778 330.018 226.778ZM334.007 205.357L334.516 202.277H337.568L337.086 205.357H334.007ZM328.973 205.357L329.455 202.277H332.534L332.026 205.357H328.973ZM348.849 226.51L351.848 207.633H359.212C360.604 207.633 361.773 207.847 362.719 208.275C363.665 208.686 364.379 209.284 364.861 210.069C365.343 210.837 365.584 211.765 365.584 212.854C365.584 214.228 365.272 215.362 364.647 216.254C364.04 217.147 363.192 217.816 362.103 218.263C361.032 218.691 359.81 218.896 358.435 218.879V218.477H359.131C359.97 218.477 360.658 218.718 361.193 219.2C361.729 219.664 362.157 220.316 362.478 221.155L364.54 226.51H361.032L358.837 220.726C358.676 220.298 358.48 219.959 358.248 219.709C358.034 219.441 357.766 219.253 357.444 219.146C357.123 219.021 356.721 218.959 356.24 218.959H353.482L352.303 226.51H348.849ZM353.883 216.415H358.435C359.649 216.415 360.586 216.138 361.247 215.585C361.925 215.014 362.264 214.193 362.264 213.122C362.264 212.193 361.979 211.497 361.407 211.033C360.836 210.569 359.935 210.337 358.703 210.337H354.847L353.883 216.415ZM374.435 226.51L377.434 207.633H380.861L379.523 215.987H379.576L389.082 207.633H393.446L382.147 217.567L382.04 215.987L390.903 226.51H386.94L379.308 217.7H379.255L377.863 226.51H374.435ZM399.446 226.51L402.445 207.633H405.872L402.873 226.51H399.446ZM402.927 205.249L403.409 202.143H406.649L406.167 205.249H402.927ZM418.731 226.51L420.284 216.79L420.659 218.852L414.473 207.633H418.222L422.399 215.344H421.649L428.29 207.633H432.387L422.64 218.852L423.711 216.79L422.158 226.51H418.731ZM438.982 226.51L441.954 207.633H454.512L454.084 210.364H444.819L443.989 215.558H452.691L452.263 218.289H443.561L442.677 223.779H451.942L451.513 226.51H438.982ZM464.009 215.398L464.411 207.633H468.293L466.258 215.398H464.009ZM475.876 226.51L478.875 207.633H481.445L489.96 222.065H489.291L491.567 207.633H494.753L491.754 226.51H489.211L480.669 212.077H481.338L479.062 226.51H475.876ZM503.109 226.51L506.108 207.633H509.536L506.537 226.51H503.109ZM506.59 205.249L507.072 202.143H510.312L509.83 205.249H506.59ZM517.896 226.51L520.895 207.633H523.465L531.98 222.065H531.311L533.587 207.633H536.773L533.774 226.51H531.23L522.689 212.077H523.358L521.082 226.51H517.896ZM566.591 226.778C565.681 226.778 564.779 226.697 563.886 226.537C562.994 226.376 562.146 226.126 561.343 225.787C560.557 225.448 559.834 225.019 559.174 224.502L560.406 221.904C561.102 222.386 561.807 222.779 562.521 223.082C563.235 223.368 563.958 223.573 564.69 223.698C565.422 223.823 566.162 223.886 566.912 223.886C567.751 223.886 568.465 223.779 569.054 223.564C569.661 223.35 570.125 223.047 570.447 222.654C570.786 222.243 570.955 221.779 570.955 221.262C570.955 220.869 570.857 220.521 570.661 220.217C570.482 219.896 570.188 219.619 569.777 219.387C569.367 219.155 568.813 218.968 568.117 218.825L565.199 218.129C563.895 217.825 562.86 217.281 562.092 216.495C561.325 215.692 560.941 214.63 560.941 213.309C560.941 212.381 561.137 211.551 561.53 210.819C561.923 210.087 562.467 209.462 563.164 208.945C563.86 208.427 564.654 208.034 565.547 207.766C566.457 207.499 567.421 207.365 568.438 207.365C569.617 207.365 570.804 207.543 572 207.9C573.196 208.257 574.249 208.829 575.159 209.614L573.874 212.131C573.071 211.453 572.187 210.971 571.223 210.685C570.259 210.399 569.313 210.257 568.385 210.257C567.599 210.257 566.894 210.373 566.27 210.605C565.663 210.837 565.19 211.158 564.85 211.569C564.511 211.979 564.342 212.461 564.342 213.015C564.342 213.693 564.538 214.211 564.931 214.568C565.323 214.925 565.904 215.201 566.671 215.398L569.59 216.094C571.179 216.451 572.366 217.049 573.151 217.888C573.954 218.709 574.356 219.7 574.356 220.86C574.356 221.842 574.151 222.708 573.74 223.457C573.33 224.189 572.758 224.805 572.026 225.305C571.312 225.787 570.491 226.153 569.563 226.403C568.635 226.653 567.644 226.778 566.591 226.778ZM583.697 226.51L586.696 207.633H594.033C595.425 207.633 596.594 207.838 597.54 208.248C598.504 208.641 599.227 209.23 599.709 210.016C600.191 210.801 600.432 211.756 600.432 212.881C600.432 214.255 600.147 215.433 599.575 216.415C599.022 217.397 598.192 218.147 597.085 218.664C595.978 219.182 594.622 219.441 593.015 219.441H588.249L587.124 226.51H583.697ZM588.677 216.736H593.176C594.461 216.736 595.434 216.433 596.094 215.826C596.773 215.201 597.112 214.309 597.112 213.148C597.112 212.185 596.817 211.479 596.228 211.033C595.657 210.569 594.791 210.337 593.631 210.337H589.695L588.677 216.736ZM617.447 226.778C615.769 226.778 614.306 226.456 613.056 225.814C611.807 225.171 610.834 224.234 610.137 223.002C609.459 221.753 609.12 220.253 609.12 218.504C609.12 216.897 609.343 215.416 609.789 214.059C610.254 212.702 610.914 211.524 611.771 210.524C612.628 209.525 613.663 208.748 614.877 208.195C616.091 207.642 617.465 207.365 619 207.365C620.696 207.365 622.16 207.686 623.392 208.329C624.641 208.971 625.605 209.909 626.284 211.14C626.98 212.372 627.328 213.862 627.328 215.612C627.328 217.236 627.096 218.727 626.632 220.083C626.185 221.44 625.534 222.618 624.677 223.618C623.82 224.618 622.785 225.394 621.571 225.947C620.357 226.501 618.983 226.778 617.447 226.778ZM617.501 223.832C618.84 223.832 619.973 223.484 620.902 222.788C621.83 222.074 622.535 221.101 623.017 219.869C623.499 218.638 623.74 217.236 623.74 215.665C623.74 213.862 623.311 212.524 622.455 211.649C621.598 210.756 620.42 210.31 618.92 210.31C617.599 210.31 616.475 210.658 615.546 211.354C614.618 212.051 613.913 213.015 613.431 214.246C612.949 215.46 612.708 216.861 612.708 218.45C612.708 220.271 613.136 221.628 613.993 222.52C614.85 223.395 616.019 223.832 617.501 223.832ZM636.516 226.51L639.515 207.633H646.879C648.271 207.633 649.44 207.847 650.386 208.275C651.332 208.686 652.046 209.284 652.528 210.069C653.01 210.837 653.251 211.765 653.251 212.854C653.251 214.228 652.939 215.362 652.314 216.254C651.707 217.147 650.859 217.816 649.77 218.263C648.699 218.691 647.477 218.896 646.102 218.879V218.477H646.798C647.637 218.477 648.324 218.718 648.86 219.2C649.396 219.664 649.824 220.316 650.145 221.155L652.207 226.51H648.699L646.504 220.726C646.343 220.298 646.147 219.959 645.915 219.709C645.7 219.441 645.433 219.253 645.111 219.146C644.79 219.021 644.388 218.959 643.906 218.959H641.148L639.97 226.51H636.516ZM641.55 216.415H646.102C647.316 216.415 648.253 216.138 648.914 215.585C649.592 215.014 649.931 214.193 649.931 213.122C649.931 212.193 649.645 211.497 649.074 211.033C648.503 210.569 647.602 210.337 646.37 210.337H642.514L641.55 216.415ZM676.549 226.51L679.548 207.633H685.599C688.598 207.633 690.91 208.338 692.534 209.748C694.158 211.158 694.98 213.14 694.997 215.692C694.997 217.21 694.774 218.629 694.328 219.95C693.882 221.253 693.203 222.395 692.293 223.377C691.4 224.359 690.276 225.126 688.919 225.68C687.58 226.233 686.001 226.51 684.18 226.51H676.549ZM680.431 223.671H684.233C685.483 223.671 686.563 223.475 687.473 223.082C688.384 222.672 689.124 222.11 689.696 221.396C690.285 220.681 690.713 219.843 690.981 218.879C691.267 217.915 691.409 216.87 691.409 215.746C691.409 214.032 690.918 212.729 689.937 211.836C688.973 210.926 687.527 210.471 685.599 210.471H682.52L680.431 223.671ZM712.314 226.778C711.1 226.778 710.011 226.608 709.047 226.269C708.101 225.912 707.307 225.385 706.664 224.689C706.039 223.975 705.602 223.091 705.352 222.038C705.12 220.967 705.12 219.718 705.352 218.289L707.039 207.633H710.466L708.753 218.53C708.485 220.262 708.664 221.583 709.288 222.493C709.931 223.386 711.02 223.832 712.555 223.832C714.019 223.832 715.17 223.457 716.009 222.708C716.848 221.94 717.402 220.735 717.669 219.093L719.49 207.633H722.891L721.097 219.039C720.829 220.717 720.347 222.136 719.651 223.297C718.955 224.439 718 225.305 716.786 225.894C715.59 226.483 714.099 226.778 712.314 226.778ZM716.304 205.357L716.812 202.277H719.865L719.383 205.357H716.304ZM711.27 205.357L711.752 202.277H714.831L714.322 205.357H711.27ZM731.146 226.51L734.145 207.633H736.715L745.23 222.065H744.561L746.837 207.633H750.023L747.024 226.51H744.48L735.939 212.077H736.608L734.332 226.51H731.146ZM762.877 226.51L764.43 216.79L764.805 218.852L758.62 207.633H762.369L766.546 215.344H765.796L772.437 207.633H776.533L766.787 218.852L767.858 216.79L766.305 226.51H762.877ZM778.374 226.51L789.941 207.633H792.753L798.268 226.51H794.975L793.636 221.422L794.707 222.145H783.622L784.961 221.503L782.015 226.51H778.374ZM790.905 211.354L785.818 220.03L785.228 219.414H793.984L793.261 220.083L790.959 211.354H790.905ZM814.37 226.778C813.459 226.778 812.558 226.697 811.665 226.537C810.773 226.376 809.925 226.126 809.122 225.787C808.336 225.448 807.613 225.019 806.953 224.502L808.184 221.904C808.881 222.386 809.586 222.779 810.3 223.082C811.014 223.368 811.737 223.573 812.469 223.698C813.2 223.823 813.941 223.886 814.691 223.886C815.53 223.886 816.244 223.779 816.833 223.564C817.44 223.35 817.904 223.047 818.225 222.654C818.565 222.243 818.734 221.779 818.734 221.262C818.734 220.869 818.636 220.521 818.44 220.217C818.261 219.896 817.967 219.619 817.556 219.387C817.145 219.155 816.592 218.968 815.896 218.825L812.977 218.129C811.674 217.825 810.639 217.281 809.871 216.495C809.104 215.692 808.72 214.63 808.72 213.309C808.72 212.381 808.916 211.551 809.309 210.819C809.702 210.087 810.246 209.462 810.942 208.945C811.639 208.427 812.433 208.034 813.325 207.766C814.236 207.499 815.2 207.365 816.217 207.365C817.395 207.365 818.582 207.543 819.778 207.9C820.974 208.257 822.028 208.829 822.938 209.614L821.653 212.131C820.849 211.453 819.966 210.971 819.002 210.685C818.038 210.399 817.092 210.257 816.164 210.257C815.378 210.257 814.673 210.373 814.048 210.605C813.441 210.837 812.968 211.158 812.629 211.569C812.29 211.979 812.12 212.461 812.12 213.015C812.12 213.693 812.317 214.211 812.71 214.568C813.102 214.925 813.682 215.201 814.45 215.398L817.369 216.094C818.957 216.451 820.144 217.049 820.93 217.888C821.733 218.709 822.135 219.7 822.135 220.86C822.135 221.842 821.929 222.708 821.519 223.457C821.108 224.189 820.537 224.805 819.805 225.305C819.091 225.787 818.27 226.153 817.342 226.403C816.414 226.653 815.423 226.778 814.37 226.778ZM831.476 226.51L834.475 207.633H837.902L834.903 226.51H831.476Z" fill="white"/>
</svg>
