<svg width="931" height="281" viewBox="0 0 931 281" fill="none" xmlns="http://www.w3.org/2000/svg">
<path fill-rule="evenodd" clip-rule="evenodd" d="M318.685 62.3525C327.434 62.3284 336.793 61.9954 345.437 63.2949C357.19 65.0614 367.026 70.9209 373.93 80.7304C381.888 92.0395 381.876 108.448 379.618 121.673C376.871 137.765 369.498 152.436 358.109 164.206C355.266 167.145 350.487 170.379 347.146 172.713C328.082 185.085 314.974 183.818 292.998 183.836L258.476 183.725L280.538 62.4423L318.685 62.3525ZM337.171 87.624C329.291 85.3323 319.598 86.0472 311.46 86.1708L302.992 86.1982L293.232 138.541C292.018 145.251 290.14 153.951 289.222 160.565C301.527 160.595 315.512 161.988 326.619 157.078C339.019 150.879 346.203 143.654 350.494 130.355C355.397 115.159 355.985 93.0953 337.171 87.624Z" fill="#FCFBFB"/>
<path fill-rule="evenodd" clip-rule="evenodd" d="M688.113 92.4594C705.465 90.4065 727.384 94.9301 728.717 116.175C729.526 129.108 725.026 142.738 722.903 155.442C721.326 164.897 719.738 174.356 718.147 183.812L696.773 183.942C696.801 180.142 697.151 177.016 697.551 173.236C687.068 187.288 660.874 190.303 648.428 177.268C640.672 166.343 643.209 149.228 652.719 140.241C666.02 127.672 687.354 128.97 704.328 129.039C704.632 126.277 705.282 122.478 704.787 119.796C703.264 111.536 693.923 110.444 687.113 111.919C681.39 113.161 678.358 115.615 675.239 120.412C669.507 119.779 664.415 119.483 658.715 118.422C658.515 116.854 658.224 114.04 658.379 112.539C659.652 99.9416 677.571 93.8703 688.113 92.4594ZM701.66 144.546C696.35 144.542 690.514 144.421 685.259 144.753C660.834 147.249 661.892 169.908 682.426 167.313C682.98 167.242 683.535 167.156 684.085 167.055C697.186 163.228 699.592 157.656 701.66 144.546Z" fill="#FCFBFB"/>
<path d="M393.635 94.1213C401.454 94.0358 409.273 94.054 417.091 94.1754C415.268 111.741 410.485 130.229 407.544 147.684C406.258 155.315 408.727 162.274 417.086 163.596C427.39 165.227 435.482 158.93 439.09 149.626C441.778 142.538 442.199 134.074 443.792 126.658C445.905 115.874 447.83 105.065 449.502 94.1913C457.576 94.0371 465.65 94.0694 473.719 94.2886C472.078 104.549 470.35 114.795 468.537 125.026C465.991 143.643 461.29 165.352 457.572 183.964L434.654 183.811C435.224 179.56 435.628 176.1 436.752 171.968C434.22 174.964 431.895 177.6 428.641 179.655C409.609 191.675 381.794 186.774 382.258 160.013C382.407 151.392 384.129 144.824 385.6 136.631C388.093 122.426 390.771 108.255 393.635 94.1213Z" fill="#FCFBFB"/>
<path d="M532.784 92.0501C541.367 91.7896 551.213 94.1885 556.254 101.726C562.341 110.764 561.169 122.116 559.255 132.244C556 149.449 553.409 166.774 550.254 183.996C542.526 183.688 533.766 183.819 525.956 183.76C527.252 175.603 528.602 167.852 530.015 159.521C532.048 147.544 536.043 134.845 535.552 122.714C535.466 120.589 534.266 117.889 532.475 116.711C523.588 110.866 512.609 113.468 506.277 121.751C504.931 123.882 503.89 126.19 503.181 128.608C502.304 131.629 501.658 134.69 501.172 137.794C498.767 153.149 495.144 168.365 493.007 183.742C485.129 183.888 477.247 183.902 469.369 183.783C470.051 174.625 473.855 154.99 475.66 145.716C479.07 128.604 482.202 111.438 485.057 94.2245C492.535 94.0385 500.017 94.0462 507.5 94.2481C507.168 98.0971 506.863 101.121 506.218 104.923C514 96.6102 521.506 92.7553 532.784 92.0501Z" fill="#FCFBFB"/>
<path d="M566.651 94.1792C575.024 93.7408 584.698 93.9705 593.085 94.1087C593.317 97.4457 594.176 101.853 594.772 105.224C597.454 120.386 599.713 135.956 603.086 150.968C604.468 148.817 605.75 146.342 606.909 144.059C615.342 127.455 623.552 110.547 632.23 94.0828C640.399 94.0419 650.186 93.9318 658.242 94.4638C651.2 104.766 646.204 115.85 639.931 126.531C635.035 134.862 630.634 143.267 625.87 151.644C625.066 153.244 623.943 155.189 622.979 156.724C612.651 173.219 605.432 192.924 592.649 207.601C586.639 214.5 567.142 212.382 558.205 212.172C560.709 205.517 563.369 198.918 566.169 192.38C580.088 192.622 579.398 190.965 586.244 179.47C586.016 178.036 585.725 176.74 585.362 175.334C578.411 148.535 573.056 121.11 566.651 94.1792Z" fill="#FCFBFB"/>
<path d="M772.621 92.0252C785.822 91.4482 801.246 94.7293 807.17 108.025C806.611 111.851 805.71 114.658 804.274 118.175C798.842 118.606 793.382 118.996 787.972 119.659C786.045 112.767 780.267 110.183 773.757 110.626C756.96 111.769 756.215 125.131 773.475 128.441C786.095 130.862 802.278 136.692 802.683 151.9C802.969 160.116 799.901 168.095 794.182 174C785.377 183.208 774.453 185.309 762.252 185.578C757.815 185.543 753.401 185.029 749.078 184.043C738.19 181.478 733.999 177.583 728.371 168.502C729.835 165.179 731.335 161.109 732.703 157.686C737.563 157.2 743.836 157.036 748.814 156.76C750.664 169.655 770.871 169.915 777.808 162.128C787.209 151.576 761.015 147.557 755.015 145.329C751.178 143.917 747.6 141.877 744.432 139.291C739.781 135.437 737.958 131.602 737.422 125.537C736.763 118.145 739.109 110.797 743.936 105.159C751.542 96.117 761.392 92.9887 772.621 92.0252Z" fill="#FCFBFB"/>
<path d="M108.5 43.1352C130.903 43.7637 154.094 42.4368 176.418 43.3149C181.167 43.5079 185.902 43.9703 190.599 44.7016C212.702 48.3022 234.941 62.7672 240.296 85.3862C252.893 138.599 208.072 198.242 158.097 211.631C157.69 211.739 157.28 211.835 156.867 211.915C155.22 212.547 151.807 213.122 149.947 213.49C139.155 206.903 128.114 199.833 118.271 191.864C114.036 188.436 109.952 185.288 105.312 182.437L105.313 182.436C116.849 182.057 125.083 182.191 136.481 179.769C158.875 173.181 183.767 156.071 195.117 135.288C204.563 117.99 202.844 96.7677 184.005 86.6645C173.346 80.9477 158.794 81.9276 146.986 81.934L112.923 81.9574C96.6567 81.9374 74.6194 82.4429 83.5557 58.4457C87.2651 52.4472 94.2784 46.4236 100.786 43.6977C101.99 43.1932 106.975 43.0924 108.5 43.1352Z" fill="#185DC0"/>
<path d="M99.4023 102.888C99.7365 103.036 100.176 103.243 100.469 103.463C115.741 114.957 130.04 127.728 145.823 138.533C146.751 139.167 146.932 139.847 147.115 140.836C145.827 142.918 118.618 155.82 114.22 158.255C104.44 163.602 91.6167 169.385 81.3193 173.701C84.6315 158.586 87.9934 143.766 92.2656 128.878C94.4608 121.229 95.7788 109.617 99.4023 102.888Z" fill="#185DC0"/>
<path d="M825.144 93.8959C831.449 93.7395 838.077 93.9491 844.405 94.0523C839.414 123.856 834.868 153.705 828.899 183.326C827.576 184.147 826.84 183.896 825.126 183.955C818.762 184.016 812.166 183.877 805.779 183.817C808.306 164.679 812.248 144.675 815.921 125.741C817.844 115.823 819.089 104.082 821.203 94.5334C822.108 93.7704 823.881 93.9264 825.144 93.8959Z" fill="#FCFBFB"/>
<path d="M454.717 63.8341C460.513 63.7436 466 64.1283 466.864 71.2397C467.268 74.5562 466.345 77.8987 464.291 80.5359C462.218 83.1727 460.195 83.9033 457.008 84.278C454.493 84.3007 451.531 84.1275 448.981 84.0443C448.696 83.8501 448.417 83.6464 448.146 83.4327C445.824 81.5999 444.76 79.7406 444.448 76.7692C444.092 73.4909 445.057 70.2062 447.127 67.6404C449.392 64.8767 451.335 64.1897 454.717 63.8341Z" fill="#FCFBFB"/>
<path d="M415.514 64.2342C422.674 63.7254 426.257 62.3049 430.467 68.9284C430.909 76.8774 429.819 80.7281 422.352 83.9806C415.118 85.1441 412.061 84.7485 407.821 78.7093C408.259 71.5961 408.92 67.7085 415.514 64.2342Z" fill="#FCFBFB"/>
<path d="M271.569 240.658L274.113 224.646H267.633L268.089 221.781H284.476L284.02 224.646H277.541L274.997 240.658H271.569ZM299.018 240.926C297.804 240.926 296.715 240.756 295.751 240.417C294.805 240.06 294.01 239.534 293.368 238.837C292.743 238.123 292.306 237.24 292.056 236.187C291.824 235.116 291.824 233.866 292.056 232.438L293.743 221.781H297.17L295.456 232.679C295.189 234.41 295.367 235.731 295.992 236.642C296.634 237.534 297.723 237.981 299.258 237.981C300.722 237.981 301.874 237.606 302.713 236.856C303.552 236.088 304.105 234.883 304.373 233.241L306.194 221.781H309.594L307.8 233.188C307.532 234.866 307.05 236.285 306.354 237.445C305.658 238.588 304.703 239.453 303.489 240.042C302.293 240.631 300.803 240.926 299.018 240.926ZM303.007 219.505L303.516 216.426H306.568L306.086 219.505H303.007ZM297.973 219.505L298.455 216.426H301.534L301.026 219.505H297.973ZM317.849 240.658L320.848 221.781H328.212C329.604 221.781 330.773 221.995 331.719 222.424C332.665 222.834 333.379 223.432 333.861 224.218C334.343 224.985 334.584 225.913 334.584 227.002C334.584 228.377 334.272 229.51 333.647 230.403C333.04 231.295 332.192 231.965 331.103 232.411C330.032 232.84 328.81 233.045 327.435 233.027V232.625H328.131C328.97 232.625 329.658 232.866 330.193 233.348C330.729 233.812 331.157 234.464 331.478 235.303L333.54 240.658H330.032L327.837 234.875C327.676 234.446 327.48 234.107 327.248 233.857C327.034 233.589 326.766 233.402 326.444 233.295C326.123 233.17 325.721 233.107 325.24 233.107H322.482L321.303 240.658H317.849ZM322.883 230.564H327.435C328.649 230.564 329.586 230.287 330.247 229.734C330.925 229.162 331.264 228.341 331.264 227.27C331.264 226.342 330.979 225.646 330.407 225.182C329.836 224.717 328.935 224.485 327.703 224.485H323.847L322.883 230.564ZM343.435 240.658L346.434 221.781H349.861L348.523 230.135H348.576L358.082 221.781H362.446L351.147 231.715L351.04 230.135L359.903 240.658H355.94L348.308 231.849H348.255L346.863 240.658H343.435ZM368.446 240.658L371.445 221.781H374.872L371.873 240.658H368.446ZM371.927 219.398L372.409 216.292H375.649L375.167 219.398H371.927ZM387.731 240.658L389.284 230.938L389.659 233L383.473 221.781H387.222L391.399 229.493H390.649L397.29 221.781H401.387L391.64 233L392.711 230.938L391.158 240.658H387.731ZM407.982 240.658L410.954 221.781H423.512L423.084 224.512H413.819L412.989 229.707H421.691L421.263 232.438H412.561L411.677 237.927H420.942L420.513 240.658H407.982ZM433.009 229.546L433.411 221.781H437.293L435.258 229.546H433.009ZM444.876 240.658L447.875 221.781H450.445L458.96 236.213H458.291L460.567 221.781H463.753L460.754 240.658H458.211L449.669 226.226H450.338L448.062 240.658H444.876ZM472.109 240.658L475.108 221.781H478.536L475.537 240.658H472.109ZM475.59 219.398L476.072 216.292H479.312L478.83 219.398H475.59ZM486.896 240.658L489.895 221.781H492.465L500.98 236.213H500.311L502.587 221.781H505.773L502.774 240.658H500.23L491.689 226.226H492.358L490.082 240.658H486.896ZM535.591 240.926C534.681 240.926 533.779 240.846 532.886 240.685C531.994 240.524 531.146 240.274 530.343 239.935C529.557 239.596 528.834 239.168 528.174 238.65L529.406 236.053C530.102 236.535 530.807 236.927 531.521 237.231C532.235 237.516 532.958 237.722 533.69 237.847C534.422 237.972 535.162 238.034 535.912 238.034C536.751 238.034 537.465 237.927 538.054 237.713C538.661 237.499 539.125 237.195 539.447 236.802C539.786 236.392 539.955 235.928 539.955 235.41C539.955 235.017 539.857 234.669 539.661 234.366C539.482 234.044 539.188 233.768 538.777 233.536C538.367 233.304 537.813 233.116 537.117 232.973L534.199 232.277C532.895 231.974 531.86 231.429 531.092 230.644C530.325 229.841 529.941 228.779 529.941 227.458C529.941 226.529 530.137 225.699 530.53 224.967C530.923 224.235 531.467 223.611 532.164 223.093C532.86 222.575 533.654 222.183 534.547 221.915C535.457 221.647 536.421 221.513 537.438 221.513C538.617 221.513 539.804 221.692 541 222.049C542.196 222.406 543.249 222.977 544.159 223.762L542.874 226.279C542.071 225.601 541.187 225.119 540.223 224.833C539.259 224.548 538.313 224.405 537.385 224.405C536.599 224.405 535.894 224.521 535.27 224.753C534.663 224.985 534.19 225.307 533.85 225.717C533.511 226.128 533.342 226.61 533.342 227.163C533.342 227.841 533.538 228.359 533.931 228.716C534.323 229.073 534.904 229.35 535.671 229.546L538.59 230.242C540.179 230.599 541.366 231.197 542.151 232.036C542.954 232.857 543.356 233.848 543.356 235.008C543.356 235.99 543.151 236.856 542.74 237.606C542.33 238.338 541.758 238.953 541.026 239.453C540.312 239.935 539.491 240.301 538.563 240.551C537.635 240.801 536.644 240.926 535.591 240.926ZM552.697 240.658L555.696 221.781H563.033C564.425 221.781 565.594 221.986 566.54 222.397C567.504 222.79 568.227 223.379 568.709 224.164C569.191 224.95 569.432 225.905 569.432 227.029C569.432 228.404 569.147 229.582 568.575 230.564C568.022 231.545 567.192 232.295 566.085 232.813C564.978 233.33 563.622 233.589 562.015 233.589H557.249L556.124 240.658H552.697ZM557.677 230.885H562.176C563.461 230.885 564.434 230.581 565.094 229.975C565.773 229.35 566.112 228.457 566.112 227.297C566.112 226.333 565.817 225.628 565.228 225.182C564.657 224.717 563.791 224.485 562.631 224.485H558.695L557.677 230.885ZM586.447 240.926C584.769 240.926 583.306 240.605 582.056 239.962C580.807 239.319 579.834 238.382 579.137 237.151C578.459 235.901 578.12 234.402 578.12 232.652C578.12 231.046 578.343 229.564 578.789 228.207C579.254 226.851 579.914 225.672 580.771 224.673C581.628 223.673 582.663 222.897 583.877 222.343C585.091 221.79 586.465 221.513 588 221.513C589.696 221.513 591.16 221.835 592.392 222.477C593.641 223.12 594.605 224.057 595.284 225.289C595.98 226.52 596.328 228.011 596.328 229.76C596.328 231.385 596.096 232.875 595.632 234.232C595.185 235.589 594.534 236.767 593.677 237.766C592.82 238.766 591.785 239.543 590.571 240.096C589.357 240.649 587.983 240.926 586.447 240.926ZM586.501 237.981C587.84 237.981 588.973 237.632 589.902 236.936C590.83 236.222 591.535 235.249 592.017 234.018C592.499 232.786 592.74 231.385 592.74 229.814C592.74 228.011 592.311 226.672 591.455 225.797C590.598 224.905 589.42 224.459 587.92 224.459C586.599 224.459 585.475 224.807 584.546 225.503C583.618 226.199 582.913 227.163 582.431 228.395C581.949 229.609 581.708 231.01 581.708 232.599C581.708 234.419 582.136 235.776 582.993 236.669C583.85 237.543 585.019 237.981 586.501 237.981ZM605.516 240.658L608.515 221.781H615.879C617.271 221.781 618.44 221.995 619.386 222.424C620.332 222.834 621.046 223.432 621.528 224.218C622.01 224.985 622.251 225.913 622.251 227.002C622.251 228.377 621.939 229.51 621.314 230.403C620.707 231.295 619.859 231.965 618.77 232.411C617.699 232.84 616.477 233.045 615.102 233.027V232.625H615.798C616.637 232.625 617.324 232.866 617.86 233.348C618.396 233.812 618.824 234.464 619.145 235.303L621.207 240.658H617.699L615.504 234.875C615.343 234.446 615.147 234.107 614.915 233.857C614.7 233.589 614.433 233.402 614.111 233.295C613.79 233.17 613.388 233.107 612.906 233.107H610.148L608.97 240.658H605.516ZM610.55 230.564H615.102C616.316 230.564 617.253 230.287 617.914 229.734C618.592 229.162 618.931 228.341 618.931 227.27C618.931 226.342 618.645 225.646 618.074 225.182C617.503 224.717 616.602 224.485 615.37 224.485H611.514L610.55 230.564ZM645.549 240.658L648.548 221.781H654.599C657.598 221.781 659.91 222.486 661.534 223.896C663.158 225.307 663.98 227.288 663.997 229.841C663.997 231.358 663.774 232.777 663.328 234.098C662.882 235.401 662.203 236.544 661.293 237.525C660.4 238.507 659.276 239.275 657.919 239.828C656.58 240.382 655.001 240.658 653.18 240.658H645.549ZM649.431 237.82H653.233C654.483 237.82 655.563 237.624 656.473 237.231C657.384 236.82 658.124 236.258 658.696 235.544C659.285 234.83 659.713 233.991 659.981 233.027C660.267 232.063 660.409 231.019 660.409 229.894C660.409 228.181 659.918 226.877 658.937 225.985C657.973 225.074 656.527 224.619 654.599 224.619H651.52L649.431 237.82ZM681.314 240.926C680.1 240.926 679.011 240.756 678.047 240.417C677.101 240.06 676.307 239.534 675.664 238.837C675.039 238.123 674.602 237.24 674.352 236.187C674.12 235.116 674.12 233.866 674.352 232.438L676.039 221.781H679.466L677.753 232.679C677.485 234.41 677.664 235.731 678.288 236.642C678.931 237.534 680.02 237.981 681.555 237.981C683.019 237.981 684.17 237.606 685.009 236.856C685.848 236.088 686.402 234.883 686.669 233.241L688.49 221.781H691.891L690.097 233.188C689.829 234.866 689.347 236.285 688.651 237.445C687.955 238.588 687 239.453 685.786 240.042C684.59 240.631 683.099 240.926 681.314 240.926ZM685.304 219.505L685.812 216.426H688.865L688.383 219.505H685.304ZM680.27 219.505L680.752 216.426H683.831L683.322 219.505H680.27ZM700.146 240.658L703.145 221.781H705.715L714.23 236.213H713.561L715.837 221.781H719.023L716.024 240.658H713.48L704.939 226.226H705.608L703.332 240.658H700.146ZM731.877 240.658L733.43 230.938L733.805 233L727.62 221.781H731.369L735.546 229.493H734.796L741.437 221.781H745.533L735.787 233L736.858 230.938L735.305 240.658H731.877ZM747.374 240.658L758.941 221.781H761.753L767.268 240.658H763.975L762.636 235.571L763.707 236.294H752.622L753.961 235.651L751.015 240.658H747.374ZM759.905 225.503L754.818 234.178L754.228 233.563H762.984L762.261 234.232L759.959 225.503H759.905ZM783.37 240.926C782.459 240.926 781.558 240.846 780.665 240.685C779.773 240.524 778.925 240.274 778.122 239.935C777.336 239.596 776.613 239.168 775.953 238.65L777.184 236.053C777.881 236.535 778.586 236.927 779.3 237.231C780.014 237.516 780.737 237.722 781.469 237.847C782.2 237.972 782.941 238.034 783.691 238.034C784.53 238.034 785.244 237.927 785.833 237.713C786.44 237.499 786.904 237.195 787.225 236.802C787.565 236.392 787.734 235.928 787.734 235.41C787.734 235.017 787.636 234.669 787.44 234.366C787.261 234.044 786.967 233.768 786.556 233.536C786.145 233.304 785.592 233.116 784.896 232.973L781.977 232.277C780.674 231.974 779.639 231.429 778.871 230.644C778.104 229.841 777.72 228.779 777.72 227.458C777.72 226.529 777.916 225.699 778.309 224.967C778.702 224.235 779.246 223.611 779.942 223.093C780.639 222.575 781.433 222.183 782.325 221.915C783.236 221.647 784.2 221.513 785.217 221.513C786.395 221.513 787.582 221.692 788.778 222.049C789.974 222.406 791.028 222.977 791.938 223.762L790.653 226.279C789.849 225.601 788.966 225.119 788.002 224.833C787.038 224.548 786.092 224.405 785.164 224.405C784.378 224.405 783.673 224.521 783.048 224.753C782.441 224.985 781.968 225.307 781.629 225.717C781.29 226.128 781.12 226.61 781.12 227.163C781.12 227.841 781.317 228.359 781.71 228.716C782.102 229.073 782.682 229.35 783.45 229.546L786.369 230.242C787.957 230.599 789.144 231.197 789.93 232.036C790.733 232.857 791.135 233.848 791.135 235.008C791.135 235.99 790.929 236.856 790.519 237.606C790.108 238.338 789.537 238.953 788.805 239.453C788.091 239.935 787.27 240.301 786.342 240.551C785.414 240.801 784.423 240.926 783.37 240.926ZM800.476 240.658L803.475 221.781H806.902L803.903 240.658H800.476Z" fill="#185DC0"/>
</svg>
